<?xml version="1.0" encoding="UTF-8" standalone="no"?>
<svg
   xmlns:dc="http://purl.org/dc/elements/1.1/"
   xmlns:cc="http://creativecommons.org/ns#"
   xmlns:rdf="http://www.w3.org/1999/02/22-rdf-syntax-ns#"
   xmlns:svg="http://www.w3.org/2000/svg"
   xmlns="http://www.w3.org/2000/svg"
   xmlns:xlink="http://www.w3.org/1999/xlink"
   xmlns:sodipodi="http://sodipodi.sourceforge.net/DTD/sodipodi-0.dtd"
   xmlns:inkscape="http://www.inkscape.org/namespaces/inkscape"
   version="1.1"
   x="0px"
   y="0px"
   viewBox="0 0 100 125"
   enable-background="new 0 0 100 100"
   xml:space="preserve"
   id="svg2"
   inkscape:version="0.91 r13725"
   sodipodi:docname="perseus_logo.svg"><metadata
     id="metadata220"><rdf:RDF><cc:Work
         rdf:about=""><dc:format>image/svg+xml</dc:format><dc:type
           rdf:resource="http://purl.org/dc/dcmitype/StillImage" /><dc:title /></cc:Work></rdf:RDF></metadata><defs
     id="defs218"><linearGradient
       inkscape:collect="always"
       id="linearGradient5748"><stop
         style="stop-color:#4e5579;stop-opacity:1"
         offset="0"
         id="stop5750" /><stop
         style="stop-color:#353a53;stop-opacity:1"
         offset="1"
         id="stop5752" /></linearGradient><linearGradient
       inkscape:collect="always"
       id="linearGradient5726"><stop
         style="stop-color:#ec9b66;stop-opacity:1;"
         offset="0"
         id="stop5728" /><stop
         style="stop-color:#f5caae;stop-opacity:1"
         offset="1"
         id="stop5730" /></linearGradient><clipPath
       id="clipPath4399"
       clipPathUnits="userSpaceOnUse"><path
         inkscape:connector-curvature="0"
         id="path4401"
         d="M 0,792 1224,792 1224,0 0,0 0,792 Z" /></clipPath><clipPath
       id="clipPath4417"
       clipPathUnits="userSpaceOnUse"><path
         inkscape:connector-curvature="0"
         id="path4419"
         d="M 0,792 1224,792 1224,0 0,0 0,792 Z" /></clipPath><clipPath
       id="clipPath4437"
       clipPathUnits="userSpaceOnUse"><path
         inkscape:connector-curvature="0"
         id="path4439"
         d="M 0,792 1224,792 1224,0 0,0 0,792 Z" /></clipPath><clipPath
       id="clipPath4457"
       clipPathUnits="userSpaceOnUse"><path
         inkscape:connector-curvature="0"
         id="path4459"
         d="M 0,792 1224,792 1224,0 0,0 0,792 Z" /></clipPath><clipPath
       id="clipPath4477"
       clipPathUnits="userSpaceOnUse"><path
         inkscape:connector-curvature="0"
         id="path4479"
         d="M 0,792 1224,792 1224,0 0,0 0,792 Z" /></clipPath><clipPath
       id="clipPath4497"
       clipPathUnits="userSpaceOnUse"><path
         inkscape:connector-curvature="0"
         id="path4499"
         d="M 0,792 1224,792 1224,0 0,0 0,792 Z" /></clipPath><clipPath
       id="clipPath4515"
       clipPathUnits="userSpaceOnUse"><path
         inkscape:connector-curvature="0"
         id="path4517"
         d="M 0,792 1224,792 1224,0 0,0 0,792 Z" /></clipPath><clipPath
       id="clipPath4533"
       clipPathUnits="userSpaceOnUse"><path
         inkscape:connector-curvature="0"
         id="path4535"
         d="M 0,792 1224,792 1224,0 0,0 0,792 Z" /></clipPath><clipPath
       id="clipPath4551"
       clipPathUnits="userSpaceOnUse"><path
         inkscape:connector-curvature="0"
         id="path4553"
         d="M 0,792 1224,792 1224,0 0,0 0,792 Z" /></clipPath><clipPath
       id="clipPath4567"
       clipPathUnits="userSpaceOnUse"><path
         inkscape:connector-curvature="0"
         id="path4569"
         d="M 0,792 1224,792 1224,0 0,0 0,792 Z" /></clipPath><radialGradient
       inkscape:collect="always"
       xlink:href="#linearGradient5726"
       id="radialGradient5732"
       cx="-453.5535"
       cy="-258.70105"
       fx="-453.5535"
       fy="-258.70105"
       r="50.445858"
       gradientTransform="matrix(1.2321806,0.35224141,-0.71281838,2.4935199,-475.83464,188.40848)"
       gradientUnits="userSpaceOnUse" /><radialGradient
       inkscape:collect="always"
       xlink:href="#linearGradient5748"
       id="radialGradient5754"
       cx="-447.05176"
       cy="-260.49277"
       fx="-447.05176"
       fy="-260.49277"
       r="5.0998383"
       gradientTransform="matrix(1,0,0,0.95634412,-0.10199637,-11.547673)"
       gradientUnits="userSpaceOnUse" /><radialGradient
       inkscape:collect="always"
       xlink:href="#linearGradient5748"
       id="radialGradient5773"
       gradientUnits="userSpaceOnUse"
       gradientTransform="matrix(1,0,0,0.95634412,-0.10199637,-11.547673)"
       cx="-447.05176"
       cy="-260.49277"
       fx="-447.05176"
       fy="-260.49277"
       r="5.0998383" /></defs><sodipodi:namedview
     pagecolor="#ffffff"
     bordercolor="#666666"
     borderopacity="1"
     objecttolerance="10"
     gridtolerance="10"
     guidetolerance="10"
     inkscape:pageopacity="0"
     inkscape:pageshadow="2"
     inkscape:window-width="1424"
     inkscape:window-height="821"
     id="namedview216"
     showgrid="false"
     inkscape:zoom="0.37759172"
     inkscape:cx="-253.00656"
     inkscape:cy="656.65824"
     inkscape:window-x="30"
     inkscape:window-y="13"
     inkscape:window-maximized="0"
     inkscape:current-layer="svg2" /><g
     id="g4638"
     transform="translate(3.9456076,0)"><path
       inkscape:connector-curvature="0"
       id="path5488"
       d="m -814.39796,-656.76672 c 0.91069,0.64185 2.08177,-0.32092 3.04453,0 0.71762,0.2392 1.33847,0.70764 2.02971,1.01485 0.83234,0.36994 1.6914,0.67657 2.53712,1.01484 0.8457,0.33829 1.6914,0.67658 2.53711,1.01486 0.84571,0.33828 1.74628,0.56294 2.53712,1.01485 0.41538,0.23735 0.58696,0.80089 1.01484,1.01484 0.62378,0.31188 1.38871,0.23272 2.02971,0.50742 0.56054,0.24023 1.04605,0.63389 1.52226,1.01486 0.37358,0.29885 0.57066,0.83717 1.01486,1.01485 0.47112,0.18844 1.01484,0 1.52226,0 0.50743,0.16914 1.04387,0.26821 1.52228,0.50741 0.21394,0.10702 0.29347,0.40045 0.50742,0.50743 0.15129,0.0756 0.34696,-0.0535 0.50742,0 0.35881,0.11959 0.65605,0.38782 1.01485,0.50742 0.16046,0.0535 0.35614,-0.0756 0.50743,0 0.21394,0.10702 0.33828,0.33828 0.50741,0.50743 0.33829,0.33828 0.6168,0.74948 1.01486,1.01484 0.28146,0.18765 0.73337,-0.18764 1.01485,0 0.39805,0.26537 0.61679,0.74948 1.01484,1.01485 0.14073,0.0938 0.34696,-0.0535 0.50742,0 0.35881,0.11959 0.65605,0.38782 1.01486,0.50743 0.16046,0.0535 0.38782,-0.1196 0.50741,0 0.1196,0.11959 -0.11959,0.38782 0,0.50741 0.2392,0.23922 0.77565,-0.2392 1.01485,0 0.11959,0.1196 -0.0535,0.34697 0,0.50743 0.11959,0.35881 0.31284,0.69054 0.50743,1.01485 0.31376,0.52295 0.71228,0.99277 1.01484,1.52227 0.56294,0.98514 0.89289,2.10047 1.52228,3.04454 0.30793,0.46192 1.29739,1.07253 1.52226,1.52228 0.0757,0.15128 -0.11959,0.38782 0,0.50743 0.61803,0.61803 1.13369,0.23768 1.52228,1.01484 0.0757,0.15129 -0.1196,0.38782 0,0.50742 0.11959,0.11959 0.38782,-0.1196 0.50743,0 0.11959,0.11959 -0.0757,0.35614 0,0.50743 0.21394,0.42788 0.86356,0.56099 1.01484,1.01484 0.10702,0.32092 -0.10702,0.69392 0,1.01485 0.15129,0.45385 0.8009,0.58696 1.01485,1.01484 0.0756,0.15129 -0.0757,0.35615 0,0.50743 0.21394,0.42789 0.8009,0.58695 1.01484,1.01485 0.0757,0.15128 0,0.33828 0,0.50741 0,0.50743 0,1.01486 0,1.52228 0,1.01484 0,2.02969 0,3.04455 0,0.33827 -0.0663,0.68313 0,1.01485 0.10488,0.52448 0.40253,0.99778 0.50743,1.52226 0.0361,0.18093 -0.11304,1.80358 0,2.0297 0.10702,0.21395 0.29347,0.40045 0.50742,0.50742 0.15128,0.0757 0.43178,-0.15129 0.50743,0 0,2.8754 -0.33829,0.16914 0.50741,1.01484 0.2392,0.23922 -0.15128,0.71229 0,1.01486 0.10702,0.21395 0.40045,0.29347 0.50743,0.50742 0.0756,0.15128 -0.11959,0.38782 0,0.50743 0.1196,0.11959 0.38783,-0.1196 0.50742,0 0.16727,0.16725 -0.1224,1.66249 0,2.02969 0.0756,0.22693 0.40045,0.29347 0.50743,0.50743 0.15128,0.30257 -0.15129,0.71228 0,1.01484 0.10702,0.21395 0.40045,0.29348 0.50743,0.50742 0.0756,0.15128 0,0.33829 0,0.50743 0,0.16914 0,0.33829 0,0.50742 0,1.01485 0,2.0297 0,3.04455 0,2.53712 0,5.07424 0,7.61134 0,1.01486 0,2.02971 0,3.04455 0,0.16915 -0.1196,0.38783 0,0.50742 0.11959,0.11959 0.38782,-0.11959 0.50741,0 0.1196,0.11959 0,0.33829 0,0.50743 0,1.18399 0,2.36798 0,3.55197 0,1.69141 0,3.38282 0,5.07424 0,0.26534 0.0668,1.89626 0,2.02969 -0.10701,0.21394 -0.40045,0.29347 -0.50741,0.50743 -0.0757,0.15128 0.0535,0.34695 0,0.50741 -0.1196,0.35881 -0.38782,0.65606 -0.50743,1.01485 -0.10662,0.31971 0,2.65717 0,3.04455 0,0.16913 0.0535,0.34696 0,0.50742 -0.11959,0.3588 -0.38782,0.65605 -0.50743,1.01484 -0.17973,0.5392 0.17974,1.49051 0,2.02971 -0.11959,0.35879 -0.38782,0.65604 -0.50742,1.01484 -0.11638,0.34902 0.1497,1.22288 0,1.52226 -0.10702,0.21396 -0.40045,0.29349 -0.50743,0.50743 -0.15128,0.30257 0.15129,0.71228 0,1.01485 -0.10702,0.21396 -0.33827,0.67657 -0.50741,0.50743 -0.16915,-0.16914 0.50741,-0.74663 0.50741,-0.50743 0,1.22516 -0.62856,0.74972 -1.01484,1.52227 -0.0756,0.15129 0.0535,0.34696 0,0.50742 -0.1196,0.35881 -0.38782,0.65605 -0.50742,1.01486 -0.0535,0.16046 0.1196,0.38782 0,0.50742 -0.11959,0.11959 -0.38782,-0.1196 -0.50743,0 -0.2392,0.2392 0.2392,0.77564 0,1.01484 -0.11959,0.11959 -0.38782,-0.11959 -0.50743,0 -0.2392,0.2392 0.15129,0.71228 0,1.01485 -0.10702,0.21395 -0.40043,0.29348 -0.50741,0.50743 -0.15129,0.30257 0.15128,0.71227 0,1.01484 -0.10702,0.21396 -0.40045,0.29347 -0.50743,0.50743 -0.34995,0.69992 0.61453,0.45387 -0.50742,1.01485 -0.15128,0.0756 -0.38782,-0.1196 -0.50743,0 -0.2392,0.2392 0.2392,0.77564 0,1.01484 -0.11959,0.1196 -0.38782,-0.11959 -0.50741,0 -0.1196,0.1196 0.0756,0.35615 0,0.50743 -0.62703,1.25405 -0.50743,-0.17516 -0.50743,1.01485 0,0.16914 0,0.67656 0,0.50741 0,-0.33827 0.33828,-1.01484 0,-1.01484 -0.37821,0 -0.38783,0.65605 -0.50743,1.01484 -0.0535,0.16046 0,0.33829 0,0.50743 0,0.33829 0.10702,0.69393 0,1.01485 -0.0756,0.22693 -0.40044,0.29347 -0.50742,0.50743 -0.20297,0.40593 0.20297,1.11632 0,1.52226 -0.10702,0.21396 -0.40045,0.29349 -0.50743,0.50743 -0.0756,0.15128 0.11959,0.38782 0,0.50742 -1.04987,1.04988 0.0411,-1.60435 -1.01484,0.50743 -0.15129,0.30256 0.15128,0.71227 0,1.01484 -0.10702,0.21394 -0.40046,0.29347 -0.50742,0.50743 -0.0757,0.15128 0.11959,0.38782 0,0.50742 -0.11959,0.11959 -0.38782,-0.1196 -0.50743,0 -0.2392,0.2392 0.10702,0.69392 0,1.01484 -0.11959,0.35881 -0.38782,0.65605 -0.50742,1.01486 -0.0535,0.16046 0.1196,0.38782 0,0.50742 -0.11959,0.11959 -0.38783,-0.1196 -0.50743,0 -0.2392,0.2392 0.15129,0.71227 0,1.01484 -0.56096,1.12195 -0.31493,0.15747 -1.01484,0.50743 -2.11178,1.05589 0.54245,-0.0351 -0.50743,1.01485 -0.11959,0.11959 -0.38782,-0.1196 -0.50742,0 -0.11959,0.11959 0,0.33828 0,0.50743 0,0.16913 0,0.33827 0,0.50741 0,0.16915 0,0.67658 0,0.50743 0,-0.33828 0.33828,-1.01484 0,-1.01484 -0.81878,0 -0.38159,1.65218 -0.50743,2.02969 -0.16914,0.33828 -0.33828,0.67656 -0.50741,1.01484 -0.16915,0 -0.38783,-0.11959 -0.50743,0 -0.2392,0.2392 0.2392,0.77565 0,1.01485 -0.2392,0.2392 -0.77565,-0.2392 -1.01485,0 -0.2392,0.2392 0.2392,0.77564 0,1.01485 -0.11959,0.11959 -0.35614,-0.0756 -0.50743,0 -2.11177,1.05588 0.54245,-0.0351 -0.50741,1.01484 -0.1196,0.11959 -0.38783,-0.11959 -0.50743,0 -0.2392,0.23921 0.2392,0.77565 0,1.01486 -0.1196,0.11959 -0.35613,-0.0757 -0.50742,0 -2.16861,1.0843 1.15376,-0.0694 -1.01486,1.01485 -0.15128,0.0756 -0.38782,-0.1196 -0.50741,0 -0.2392,0.2392 0.33828,1.01484 0,1.01484 -0.16915,0 0.16914,-0.50743 0,-0.50743 -0.89028,0 -0.3325,1.17241 -0.50743,1.52228 -0.56097,1.12194 -0.31493,0.15746 -1.01485,0.50743 -2.11177,1.05588 0.54245,-0.0351 -0.50742,1.01484 -0.11959,0.1196 -0.33828,0 -0.50742,0 -0.16915,0 -0.50743,0.16914 -0.50743,0 0,-0.16914 0.50743,-0.16914 0.50743,0 0,0.2392 -0.33829,0.33827 -0.50743,0.50742 -0.16913,0.16914 -0.29348,0.40045 -0.50742,0.50743 -0.15128,0.0756 -0.50743,0.16914 -0.50743,0 0,-0.16915 0.50743,-0.16915 0.50743,0 0,0.84145 -0.71159,0.35579 -1.01485,0.50741 -0.21395,0.10702 -0.29348,0.40045 -0.50743,0.50743 -0.15128,0.0756 -0.38782,-0.11959 -0.50741,0 -0.11959,0.1196 0.11959,0.38783 0,0.50743 -0.23922,0.2392 -0.71229,-0.1513 -1.01486,0 -0.21394,0.10702 -0.29347,0.40044 -0.50742,0.50742 -0.15128,0.0756 -0.38782,-0.1196 -0.50743,0 -0.11959,0.11959 -0.16914,0.50743 0,0.50743 0.2392,0 0.50743,-0.74663 0.50743,-0.50743 0,1.86477 -0.38996,0.7024 -1.01484,1.01484 -0.21396,0.10702 -0.29349,0.40045 -0.50743,0.50743 -0.15129,0.0756 -0.38782,-0.11959 -0.50742,0 -0.67657,0.67656 0.8457,0.50742 -0.50743,0.50742 -0.16914,0 -0.67656,0 -0.50743,0 0.33829,0 1.35314,0 1.01486,0 -0.50743,0 -1.01486,0 -1.52227,0 -0.16915,0 -0.50743,0.16914 -0.50743,0 0,-0.16913 0.50743,-0.16913 0.50743,0 0,0.16914 -0.33829,0 -0.50743,0 -0.16915,0 -0.50742,0.16914 -0.50742,0 0,-0.16913 0.50742,-0.16913 0.50742,0 0,0.2392 -0.29347,0.40045 -0.50742,0.50743 -0.15128,0.0756 -0.33828,0 -0.50743,0 -0.33828,0 -0.69392,-0.10702 -1.01484,0 -0.22694,0.0756 -0.29348,0.40045 -0.50743,0.50742 -0.15129,0.0756 -0.38783,-0.1196 -0.50742,0 -0.11959,0.11959 0.11959,0.38783 0,0.50742 -0.10381,0.10381 -1.32108,-0.10059 -1.52227,0 -0.21395,0.10702 -0.29348,0.40046 -0.50742,0.50743 -0.40595,0.20297 -1.11634,-0.20297 -1.52228,0 -0.15128,0.0756 0.1196,0.38783 0,0.50742 -0.11959,0.11959 -0.33828,0 -0.50742,0 -0.16915,0 -0.33828,0 -0.50742,0 -0.33829,0 -0.67657,0 -1.01485,0 -0.16914,0 -0.50743,0.16914 -0.50743,0 0,-0.16914 0.67656,0 0.50743,0 -0.33828,0 -0.67657,0 -1.01486,0 -0.16913,0 0.67658,0 0.50743,0 -0.33828,0 -0.67656,0 -1.01484,0 -0.33829,0 -0.67657,0 -1.01485,0 -0.16914,0 -0.50743,0.16914 -0.50743,0 0,-0.16914 0.67658,0 0.50743,0 -0.33828,0 -0.67657,0 -1.01484,0 -0.33829,0 -0.69394,0.10702 -1.01486,0 -1.02381,-0.34127 -3.5e-4,-1.01502 -1.01485,-1.52227 -0.16169,-0.0808 -2.08361,0 -2.53712,0 -0.16913,0 -0.38782,0.11959 -0.50741,0 -0.2392,-0.23921 0.2392,-0.77565 0,-1.01485 -0.1196,-0.11959 -0.50743,0.16914 -0.50743,0 0,-0.16913 0.50743,-0.16913 0.50743,0 0,0.16914 -0.35615,0.0756 -0.50743,0 -0.21395,-0.10702 -0.29348,-0.40045 -0.50742,-0.50742 -0.30257,-0.15128 -0.71228,0.15129 -1.01485,0 -0.21395,-0.10702 -0.29348,-0.40045 -0.50742,-0.50743 -0.15129,-0.0756 -0.38783,0.1196 -0.50743,0 -0.1196,-0.11959 0.11959,-0.38782 0,-0.50741 -0.1196,-0.1196 -0.35614,0.0756 -0.50742,0 -0.21394,-0.10702 -0.40045,-0.29349 -0.50743,-0.50743 -0.0756,-0.15129 0,-0.33829 0,-0.50742 0,-0.16914 -0.16914,-0.50743 0,-0.50743 0.16914,0 0.16914,0.50743 0,0.50743 -1.05589,0 -0.20417,-0.71161 -0.50742,-1.01486 -0.2392,-0.2392 -0.71227,0.15129 -1.01484,0 -1.02626,-0.51312 -0.16272,-1.17755 -0.50743,-1.52226 -0.2392,-0.2392 -0.77565,0.2392 -1.01485,0 -0.11959,-0.11959 -0.16914,-0.50743 0,-0.50743 0.2392,0 0.74663,0.50743 0.50742,0.50743 -2.56339,0 -0.38996,-0.38997 -1.01485,-1.01484 -0.11959,-0.1196 -0.38782,0.11959 -0.50741,0 -0.1196,-0.1196 0.11959,-0.38783 0,-0.50743 -0.1196,-0.1196 -0.38783,0.11959 -0.50743,0 -0.1196,-0.1196 0.11959,-0.38783 0,-0.50743 -0.1196,-0.1196 -0.35613,0.0756 -0.50742,0 -0.4279,-0.21395 -0.58696,-0.80089 -1.01486,-1.01485 -0.30257,-0.15128 -1.01484,0.33829 -1.01484,0 0,-0.16914 0.62702,0.11959 0.50743,0 -0.26744,-0.26743 -0.74742,-0.23999 -1.01485,-0.50741 -0.11959,-0.1196 -0.16914,-0.50743 0,-0.50743 0.16914,0 0,0.67657 0,0.50743 0,-0.33829 0.2392,-0.77565 0,-1.01485 -0.23627,-0.23627 -1.60635,0.21167 -2.02969,0 -0.1513,-0.0757 -0.16914,-0.50743 0,-0.50743 0.16913,0 0.16913,0.50743 0,0.50743 -0.16914,0 0.11959,-0.38782 0,-0.50743 -0.11959,-0.11959 -0.50743,0.16914 -0.50743,0 0,-0.16914 0.50743,0.16914 0.50743,0 0,-1.05589 -0.71161,-0.20418 -1.01486,-0.50743 -0.11959,-0.11959 0.11959,-0.38782 0,-0.50742 -1.04987,-1.04988 0.0411,1.60435 -1.01484,-0.50742 -0.0756,-0.15129 0.11959,-0.38783 0,-0.50742 -0.2392,-0.2392 -0.77565,0.2392 -1.01485,0 -0.11959,-0.11959 0.11959,-0.38782 0,-0.50743 -0.11959,-0.11959 -0.38782,0.11959 -0.50742,0 -0.11959,-0.11959 0.1196,-0.38782 0,-0.50742 -0.11959,-0.11959 -0.50743,0.16913 -0.50743,0 0,-0.16914 0.50743,0.16913 0.50743,0 0,-0.23921 -0.40045,-0.29348 -0.50743,-0.50743 -0.0756,-0.15128 0.1196,-0.38782 0,-0.50743 -0.11959,-0.11959 -0.35614,0.0757 -0.50743,0 -2.11177,-1.05588 0.54247,0.0351 -0.50741,-1.01484 -0.11959,-0.11959 -0.38782,0.11959 -0.50743,0 -0.11959,-0.11959 0.11959,-0.38782 0,-0.50742 -1.04988,-1.04988 0.0411,1.60435 -1.01485,-0.50743 -0.0756,-0.15128 0.1196,-0.38782 0,-0.50741 -0.11959,-0.1196 -0.38782,0.11959 -0.50741,0 -0.1196,-0.1196 0.11959,-0.38783 0,-0.50743 -0.1196,-0.1196 -0.50743,0.16914 -0.50743,0 0,-0.16915 0.50743,0.16914 0.50743,0 0,-1.05589 -0.71161,-0.20418 -1.01486,-0.50743 -0.11959,-0.1196 0.11959,-0.38782 0,-0.50742 -0.11959,-0.11959 -0.38782,0.1196 -0.50742,0 -1.04988,-1.04988 1.60435,0.0411 -0.50743,-1.01484 -0.15128,-0.0756 -0.38782,0.11959 -0.50741,0 -0.1196,-0.1196 0.11959,-0.38783 0,-0.50743 -0.1196,-0.1196 -0.38783,0.11959 -0.50743,0 -0.1196,-0.1196 0.11959,-0.38783 0,-0.50742 -0.1196,-0.11959 -0.33829,0 -0.50742,0 0,-0.33829 0.15129,-0.71229 0,-1.01486 -0.52494,0 -0.70135,0.1196 -1.01486,-0.50741 -0.0756,-0.15129 0.15129,-0.43178 0,-0.50743 -2.87539,0 -0.16913,0.33828 -1.01484,-0.50742 -0.1196,-0.11959 -0.38783,0.11959 -0.50742,0 -0.11959,-0.11959 0.0535,-0.34697 0,-0.50743 -1.43745,-2.8749 0.1891,0.75642 -0.50743,-2.02969 -0.0918,-0.36693 -0.38782,-0.65605 -0.50742,-1.01485 -0.25371,-0.76114 0.50742,-0.50743 0,-1.52227 -0.0757,-0.15129 -0.38782,0.11959 -0.50742,0 -0.1196,-0.11959 0.0756,-0.35615 0,-0.50743 -0.30446,-0.6089 -1.21782,-0.91335 -1.52228,-1.52226 -0.0756,-0.15129 0.0535,-0.34697 0,-0.50743 -0.11959,-0.35881 -0.38782,-0.65604 -0.50742,-1.01485 -0.0535,-0.16046 0.0756,-0.35614 0,-0.50743 -0.30445,-0.60889 -1.21782,-0.91335 -1.52227,-1.52226 -0.0756,-0.15128 0.11959,-0.38782 0,-0.50743 -0.11959,-0.11959 -0.38782,0.1196 -0.50743,0 -0.2392,-0.2392 0.23921,-0.77564 0,-1.01484 -0.11959,-0.1196 -0.38782,0.11959 -0.50742,0 -0.11959,-0.1196 0.0756,-0.35615 0,-0.50743 -0.0674,-0.13473 -1.38755,-1.45491 -1.52227,-1.52226 -0.15129,-0.0757 -0.38782,0.11959 -0.50742,0 -0.23921,-0.23921 0.10702,-0.69393 0,-1.01485 -0.11959,-0.35881 -0.29763,-0.70016 -0.50743,-1.01486 0.34526,-0.71063 -0.95573,-0.4483 -1.01484,-0.50742 -0.1196,-0.11959 0.0756,-0.35614 0,-0.50743 -0.10702,-0.21394 -0.43178,-0.28049 -0.50743,-0.50741 -0.10702,-0.32092 0,-0.67657 0,-1.01485 0,-0.16914 0.0757,-0.35614 0,-0.50743 -0.10702,-0.21394 -0.40045,-0.29347 -0.50742,-0.50743 -0.0757,-0.15128 0.1196,-0.38782 0,-0.50741 -0.11959,-0.1196 -0.35614,0.0756 -0.50743,0 -2.11177,-1.05589 0.54245,0.0351 -0.50741,-1.01485 -0.1196,-0.11959 -0.43178,0.15129 -0.50743,0 -0.15129,-0.30257 0.10702,-0.69392 0,-1.01484 -0.15129,-0.45386 -0.80091,-0.58696 -1.01485,-1.01486 -0.0756,-0.15129 0.0756,-0.35613 0,-0.50742 -0.21394,-0.4279 -0.8009,-0.58696 -1.01484,-1.01484 -0.0757,-0.15129 0,-0.33829 0,-0.50743 0,-0.33829 0.082,-0.68666 0,-1.01485 -0.0918,-0.36691 -0.33829,-0.67656 -0.50743,-1.01484 -0.33829,-0.67656 -0.67656,-1.35314 -1.01485,-2.0297 -0.16914,-0.33828 -0.43325,-0.64398 -0.50743,-1.01484 -0.0995,-0.49757 0.12307,-1.03 0,-1.52228 -0.0581,-0.23205 -0.37473,-0.3084 -0.50742,-0.50743 -0.20979,-0.31468 -0.29763,-0.70015 -0.50742,-1.01484 -0.13271,-0.19903 -0.40046,-0.29347 -0.50742,-0.50742 -0.0757,-0.15128 0.0535,-0.34697 0,-0.50743 -0.11959,-0.3588 -0.38782,-0.65605 -0.50743,-1.01484 -0.10702,-0.32093 0.2392,-0.77565 0,-1.01485 -0.11959,-0.11959 -0.38782,0.1196 -0.50742,0 -0.23921,-0.2392 0.2392,-0.77564 0,-1.01484 -0.11959,-0.1196 -0.38782,0.11959 -0.50743,0 -0.13616,-0.13619 0.11906,-1.67233 0,-2.02971 -0.2392,-0.7176 -0.73392,-1.32737 -1.01484,-2.02969 -0.4126,-1.03149 -0.41985,-1.64462 -1.01485,-2.53712 -0.1327,-0.19903 -0.43178,-0.2805 -0.50743,-0.50742 -0.10702,-0.32092 0,-0.67657 0,-1.01486 0,-0.8457 0,-1.6914 0,-2.5371 0,-0.33829 0.0663,-0.68314 0,-1.01486 -0.20979,-1.04896 -0.75539,-2.00674 -1.01484,-3.04454 -0.082,-0.32818 0.15128,-0.71228 0,-1.01484 -0.10702,-0.21395 -0.40045,-0.29348 -0.50743,-0.50743 -0.10836,-0.21672 0,-2.33653 0,-2.53712 0,-1.18399 0,-2.36798 0,-3.55197 0,-0.33827 -0.082,-0.68666 0,-1.01485 0.0918,-0.36691 0.38782,-0.65603 0.50743,-1.01484 0.0535,-0.16046 -0.0756,-0.35613 0,-0.50742 0.10702,-0.21396 0.40045,-0.29348 0.50743,-0.50743 0.2392,-0.4784 0.37769,-1.00337 0.50741,-1.52227 0.0411,-0.16409 -0.0756,-0.35613 0,-0.50742 0.10702,-0.21396 0.40045,-0.29347 0.50743,-0.50743 0.0756,-0.15128 -0.0756,-0.35613 0,-0.50741 0.10702,-0.21396 0.40045,-0.29349 0.50742,-0.50743 0.15128,-0.30257 -0.10702,-0.69393 0,-1.01485 0.11959,-0.35881 0.38782,-0.65605 0.50743,-1.01484 0.10702,-0.32093 -0.15129,-0.71228 0,-1.01485 0.10702,-0.21396 0.40045,-0.29349 0.50741,-0.50743 0.0757,-0.15128 0,-0.33829 0,-0.50743 0.16915,-0.16913 0.40046,-0.29347 0.50743,-0.50742 0.15129,-0.30256 -0.15128,-0.71227 0,-1.01484 0.10702,-0.21396 0.33829,-0.33829 0.50743,-0.50743 0,-0.33829 -0.10702,-0.69392 0,-1.01485 0.15129,-0.45385 0.80089,-0.58694 1.01485,-1.01484 0.0756,-0.15129 -0.0757,-0.35615 0,-0.50743 0.21394,-0.42789 0.86356,-0.56099 1.01484,-1.01485 0.10702,-0.32092 -0.15128,-0.71227 0,-1.01484 0.0756,-0.15129 0.35614,0.0757 0.50742,0 0.4279,-0.21395 0.58696,-0.8009 1.01486,-1.01485 0.15128,-0.0757 0.35613,0.0756 0.50742,0 0.21395,-0.10702 0.33828,-0.33828 0.50743,-0.50743 0.16914,-0.16913 0.37473,-0.30839 0.50741,-0.50741 0.2098,-0.31469 0.29763,-0.70016 0.50743,-1.01485 0.26537,-0.39806 0.67656,-0.67657 1.01485,-1.01484 0.50743,-0.50743 1.01484,-1.01486 1.52227,-1.52228 0.16914,-0.16914 0.33827,-0.33829 0.50742,-0.50743 0.16914,-0.16914 0.29348,-0.40045 0.50743,-0.50742 0.15128,-0.0757 0.38782,0.1196 0.50741,0 0.1196,-0.11959 -0.0756,-0.35614 0,-0.50743 0.30446,-0.60891 1.21782,-0.91336 1.52228,-1.52227 0.0756,-0.15128 -0.1196,-0.38782 0,-0.50742 0.11959,-0.11959 0.38782,0.1196 0.50743,0 0.11959,-0.11959 -0.0757,-0.35614 0,-0.50743 0.38857,-0.77715 0.90423,-0.39681 1.52226,-1.01484 0.11959,-0.11959 -0.11959,-0.38782 0,-0.50742 0.11959,-0.11959 0.35614,0.0756 0.50743,0 0.21394,-0.10702 0.29347,-0.40045 0.50743,-0.50743 0.15128,-0.0757 0.38782,0.1196 0.50741,0 0.1196,-0.11959 -0.11959,-0.38782 0,-0.50743 0.1196,-0.11959 0.33829,0 0.50743,0 0.33828,0 0.71228,0.15129 1.01485,0 0.15128,-0.0756 -0.11959,-0.38782 0,-0.50741 0.2392,-0.2392 0.71228,0.15128 1.01485,0 0.21394,-0.10702 0.29347,-0.40045 0.50742,-0.50743 0.30257,-0.15129 0.71228,0.15128 1.01485,0 0.21394,-0.10702 0.29347,-0.40045 0.50742,-0.50742 0.15128,-0.0757 0.3667,0.0938 0.50743,0 0.39805,-0.26538 0.67656,-0.67657 1.01484,-1.01484 0.16914,-0.16915 0.29347,-0.40045 0.50743,-0.50743 0.15129,-0.0757 0.35613,0.0756 0.50742,0 0.21394,-0.10702 0.29347,-0.40045 0.50743,-0.50743 0.15128,-0.0756 0.35613,0.0757 0.50741,0 0.21396,-0.10702 0.2805,-0.43178 0.50743,-0.50742 2.30994,0 0.029,0.2392 1.52228,-0.50743 0.15128,-0.0756 0.38782,0.1196 0.50741,0 0.1196,-0.11959 -0.11959,-0.38782 0,-0.50741 0.26744,-0.26744 0.65606,-0.38783 1.01485,-0.50743 0.16046,-0.0535 0.38782,0.11959 0.50743,0 0.11959,-0.1196 -0.15129,-0.43178 0,-0.50742 0.30257,-0.15128 0.69392,0.10702 1.01484,0 0.22692,-0.0757 0.29348,-0.40045 0.50743,-0.50743 0.15129,-0.0757 0.35614,0.0756 0.50742,0 0.21394,-0.10702 0.29347,-0.40045 0.50743,-0.50743 0.15128,-0.0756 0.33827,0 0.50742,0 0.33828,-0.16913 0.70015,-0.29762 1.01484,-0.50742 1.16114,-0.77409 -0.31728,-0.40166 1.52228,-1.01484 0.32092,-0.10702 0.71227,0.15128 1.01484,0 2.11178,-1.05589 -0.54245,0.0351 0.50743,-1.01485 0.13909,-0.13909 2.18032,0.11893 2.53712,0 0.3588,-0.11959 0.65604,-0.38782 1.01485,-0.50743 0.16046,-0.0535 0.35613,0.0756 0.50741,0 0.21396,-0.10701 0.29349,-0.40045 0.50743,-0.50743 0.30257,-0.15128 0.71228,0.15129 1.01485,0 0.21394,-0.10701 0.40045,-0.29347 0.50743,-0.50741 0.0756,-0.15129 -0.15129,-0.43178 0,-0.50743 0.21565,-0.10782 2.11189,0 2.53711,0 0.16914,0 0.38782,0.11959 0.50743,0 0.11959,-0.11959 -0.1196,-0.38782 0,-0.50742 0.18227,-0.18228 1.70141,0.16414 2.02969,0 0.15128,-0.0757 -0.1196,-0.38782 0,-0.50743 0.2392,-0.2392 0.71227,0.15129 1.01484,0 0.21396,-0.10702 0.29349,-0.40045 0.50743,-0.50741 0.15129,-0.0756 0.33829,0 0.50743,0 1.32457,0 1.34742,0.0832 3.04454,0.50741 z"
       style="fill:url(#radialGradient5732);fill-opacity:1;fill-rule:evenodd;stroke:#000000;stroke-width:1.33773458px;stroke-linecap:butt;stroke-linejoin:miter;stroke-opacity:1" /><g
       transform="matrix(2.2699606,-0.38168486,0.38168486,2.2699606,-952.20976,-707.13454)"
       id="g4"><g
         id="g6"><path
           inkscape:connector-curvature="0"
           id="path8"
           d="m 70.285,75.716 c 0,0 -1.025,-3.45 -2.65,-4.146 0,0 -0.408,-0.24 -0.969,-0.553 -0.545,1.252 -1.182,2.502 -1.777,3.6 0.945,0.97 2.264,2.684 2.264,2.684 1.25,1.25 0.916,4.834 0.916,4.834 -0.625,3.082 0.959,5.708 0.959,5.708 2.125,3.375 5.959,3 5.959,3 3.207,-0.25 4.582,-2 4.582,-2 1.75,-2.417 2.084,-2.167 2.084,-2.167 1.25,-0.375 0.834,1.25 0.834,1.25 -0.334,2.25 0.957,3.209 0.957,3.209 -0.541,0.5 -0.5,0.958 -0.5,0.958 -0.041,2.125 2.543,2.583 2.543,2.583 1.457,0.25 2.75,1.084 2.75,1.084 1.707,1.542 3.457,0.375 3.457,0.375 1.959,-1.125 0.668,-2.167 0.668,-2.167 -0.5,-0.5 -1.5,-1.167 -1.5,-1.167 -1,-0.625 -1.209,-1.833 -1.209,-1.833 -0.332,-2.083 -2.291,-1.792 -2.291,-1.792 -1.125,0.334 -0.918,-1.291 -0.918,-1.291 0.209,-2.918 -0.957,-3.875 -0.957,-3.875 -1.584,-1.918 -4.293,-1.375 -4.293,-1.375 -2.041,0.416 -2.916,2 -2.916,2 -0.666,1.082 -1.584,1.416 -1.584,1.416 -3.291,1.25 -3.707,-1.25 -3.707,-1.25 -0.459,-1.291 0.291,-3.416 0.291,-3.416 0.068,-0.208 0.123,-0.42 0.172,-0.632 -0.049,-0.034 -0.1,-0.062 -0.147,-0.096 -0.002,0 -2.449,-1.846 -3.018,-4.941 z m 16.938,16.201 c 0.367,0 0.666,0.317 0.666,0.708 0,0.391 -0.299,0.708 -0.666,0.708 -0.369,0 -0.668,-0.317 -0.668,-0.708 0,-0.391 0.299,-0.708 0.668,-0.708 z" /><path
           inkscape:connector-curvature="0"
           id="path10"
           d="m 32.7,71.57 c -1.625,0.695 -2.65,4.146 -2.65,4.146 -0.568,3.095 -3.017,4.941 -3.017,4.941 -0.07,0.051 -0.141,0.09 -0.212,0.137 0.046,0.198 0.096,0.396 0.16,0.59 0,0 0.75,2.125 0.292,3.416 0,0 -0.416,2.5 -3.708,1.25 0,0 -0.918,-0.334 -1.584,-1.416 0,0 -0.874,-1.584 -2.916,-2 0,0 -2.709,-0.543 -4.292,1.375 0,0 -1.166,0.957 -0.958,3.875 0,0 0.208,1.625 -0.917,1.291 0,0 -1.959,-0.291 -2.292,1.793 0,0 -0.208,1.207 -1.208,1.832 0,0 -1,0.668 -1.5,1.168 0,0 -1.291,1.041 0.667,2.166 0,0 1.75,1.168 3.458,-0.375 0,0 1.292,-0.834 2.75,-1.084 0,0 2.584,-0.457 2.542,-2.582 0,0 0.042,-0.459 -0.5,-0.959 0,0 1.291,-0.959 0.958,-3.209 0,0 -0.417,-1.625 0.833,-1.25 0,0 0.334,-0.25 2.084,2.168 0,0 1.375,1.75 4.583,2 0,0 3.833,0.375 5.958,-3 0,0 1.584,-2.627 0.959,-5.709 0,0 -0.334,-3.584 0.916,-4.834 0,0 1.167,-1.518 2.094,-2.505 C 34.6,73.7 33.953,72.441 33.394,71.173 32.981,71.404 32.7,71.57 32.7,71.57 Z M 13.5,92.625 c -0.369,0 -0.667,-0.316 -0.667,-0.709 0,-0.391 0.298,-0.708 0.667,-0.708 0.368,0 0.667,0.317 0.667,0.708 0,0.393 -0.299,0.709 -0.667,0.709 z" /><path
           inkscape:connector-curvature="0"
           id="path12"
           d="m 27.73,73.468 c 0.875,-1.969 2.013,-3.419 3.016,-4.427 -0.032,-0.002 -0.058,-0.003 -0.093,-0.005 -0.745,-0.039 -2.205,-0.673 -2.205,-0.673 -0.298,-0.155 -0.564,-0.346 -0.806,-0.557 -0.944,1.318 -2.011,3.227 -2.148,5.272 0,0 -0.095,2.251 -1.001,3.278 0,0 -1.317,2.166 -3.907,-0.221 0,0 -0.728,-0.652 -0.942,-1.904 0,0 -0.221,-1.795 -1.961,-2.941 0,0 -2.312,-1.514 -4.495,-0.323 0,0 -1.438,0.454 -2.333,3.24 0,0 -0.412,1.585 -1.332,0.856 0,0 -1.71,-1 -2.795,0.81 0,0 -0.643,1.043 -1.804,1.251 0,0 -1.177,0.247 -1.827,0.525 0,0 -1.586,0.483 -0.188,2.258 0,0 1.189,1.736 3.349,0.939 0,0 1.51,-0.293 2.956,0.02 0,0 2.568,0.538 3.321,-1.45 0,0 0.21,-0.41 -0.107,-1.076 0,0 1.555,-0.409 2.084,-2.62 0,0 0.218,-1.664 1.238,-0.851 0,0 0.403,-0.106 1.127,2.788 0,0 0.624,2.136 3.508,3.562 0,0 3.27,1.688 6.435,-0.429 -0.8,-3.448 0.91,-7.322 0.91,-7.322 z M 8.25,79.042 c -0.369,0 -0.667,-0.317 -0.667,-0.708 0,-0.391 0.298,-0.708 0.667,-0.708 0.368,0 0.667,0.317 0.667,0.708 0,0.391 -0.299,0.708 -0.667,0.708 z" /><path
           inkscape:connector-curvature="0"
           id="path14"
           d="m 30.049,75.716 c 0,0 1.025,-3.45 2.65,-4.146 0,0 0.282,-0.166 0.693,-0.397 -0.511,-1.155 -0.939,-2.308 -1.188,-3.336 -0.359,0.761 -0.808,1.236 -0.808,1.236 0,0 -0.008,0 -0.651,-0.032 -1.003,1.008 -2.141,2.458 -3.016,4.427 0,0 -1.711,3.874 -0.91,7.326 0.071,-0.047 0.142,-0.086 0.212,-0.137 0.002,0 2.45,-1.846 3.018,-4.941 z" /><path
           inkscape:connector-curvature="0"
           id="path16"
           d="M 97.236,77.65 C 96.586,77.373 95.41,77.126 95.41,77.126 94.248,76.918 93.605,75.875 93.605,75.875 92.521,74.064 90.81,75.064 90.81,75.064 c -0.92,0.729 -1.332,-0.855 -1.332,-0.855 -0.894,-2.786 -2.332,-3.24 -2.332,-3.24 -2.185,-1.189 -4.494,0.323 -4.494,0.323 -1.74,1.146 -1.963,2.94 -1.963,2.94 -0.215,1.254 -0.941,1.904 -0.941,1.904 -2.59,2.387 -3.907,0.223 -3.907,0.223 -0.905,-1.028 -1.001,-3.279 -1.001,-3.279 -0.141,-2.1 -1.259,-4.055 -2.22,-5.374 -0.271,0.25 -0.574,0.478 -0.92,0.657 0,0 -1.447,0.628 -2.195,0.672 1.005,1.009 2.146,2.46 3.022,4.433 0,0 1.697,3.845 0.921,7.285 3.186,2.183 6.499,0.47 6.499,0.47 2.885,-1.428 3.509,-3.562 3.509,-3.562 0.724,-2.896 1.127,-2.788 1.127,-2.788 1.021,-0.813 1.237,0.851 1.237,0.851 0.529,2.211 2.086,2.62 2.086,2.62 -0.317,0.666 -0.107,1.076 -0.107,1.076 0.752,1.988 3.32,1.45 3.32,1.45 1.447,-0.312 2.957,-0.02 2.957,-0.02 2.158,0.797 3.348,-0.939 3.348,-0.939 1.398,-1.775 -0.188,-2.261 -0.188,-2.261 z m -6.069,1.392 c -0.368,0 -0.667,-0.317 -0.667,-0.708 0,-0.391 0.299,-0.708 0.667,-0.708 0.368,0 0.667,0.317 0.667,0.708 0,0.391 -0.299,0.708 -0.667,0.708 z" /><path
           inkscape:connector-curvature="0"
           id="path18"
           d="m 67.84,67.618 c 0.004,0.003 0.008,0.006 0.012,0.009 -0.002,-0.007 -0.006,-0.014 -0.009,-0.021 -0.001,0.003 -0.002,0.008 -0.003,0.012 z" /><path
           inkscape:connector-curvature="0"
           id="path20"
           d="m 72.527,73.468 c -0.877,-1.973 -2.019,-3.424 -3.022,-4.433 -0.003,0 -0.007,0.001 -0.01,0.001 -0.744,0.037 -0.744,0.037 -0.744,0.037 0,0 -0.53,-0.564 -0.899,-1.446 -0.004,-0.003 -0.008,-0.006 -0.012,-0.009 -0.229,1.036 -0.656,2.214 -1.174,3.399 0.561,0.312 0.969,0.553 0.969,0.553 1.625,0.695 2.65,4.146 2.65,4.146 0.566,3.095 3.016,4.941 3.016,4.941 0.049,0.034 0.1,0.062 0.147,0.096 0.779,-3.441 -0.921,-7.285 -0.921,-7.285 z" /><path
           inkscape:connector-curvature="0"
           id="path22"
           d="m 28.735,60.579 c 0.374,1.263 0.932,1.999 1.472,2.435 -0.263,-0.884 -0.448,-1.785 -0.448,-2.592 0,0 -0.218,-3.646 -0.305,-7.479 -0.358,-0.356 -0.715,-0.741 -1.064,-1.17 0,0 -1.902,-2.347 -2.577,-5.208 -2.754,-1.176 -5.314,0.102 -5.314,0.102 -2.904,1.387 -3.558,3.514 -3.558,3.514 -0.764,2.885 -1.166,2.772 -1.166,2.772 -1.031,0.799 -1.226,-0.867 -1.226,-0.867 -0.498,-2.219 -2.047,-2.65 -2.047,-2.65 0.326,-0.661 0.122,-1.075 0.122,-1.075 -0.724,-1.999 -3.3,-1.497 -3.3,-1.497 -1.45,0.291 -2.956,-0.023 -2.956,-0.023 -2.148,-0.826 -3.361,0.893 -3.361,0.893 -1.423,1.754 0.156,2.26 0.156,2.26 0.646,0.288 1.819,0.552 1.819,0.552 1.158,0.224 1.787,1.274 1.787,1.274 1.059,1.826 2.783,0.851 2.783,0.851 0.93,-0.717 1.32,0.875 1.32,0.875 0.854,2.797 2.287,3.271 2.287,3.271 2.166,1.223 4.499,-0.26 4.499,-0.26 1.756,-1.121 2.002,-2.912 2.002,-2.912 0.232,-1.25 0.969,-1.893 0.969,-1.893 2.624,-2.35 3.91,-0.166 3.91,-0.166 0.892,1.041 0.955,3.293 0.955,3.293 0.065,1.227 0.466,2.407 0.975,3.445 1.956,0.929 2.266,2.255 2.266,2.255 z M 8.917,50.708 C 8.548,50.708 8.25,50.391 8.25,50 c 0,-0.391 0.298,-0.708 0.667,-0.708 0.368,0 0.667,0.317 0.667,0.708 0,0.391 -0.299,0.708 -0.667,0.708 z" /><path
           inkscape:connector-curvature="0"
           id="path24"
           d="m 70.525,53.633 c -0.096,3.559 -0.287,6.76 -0.287,6.76 0,0.861 -0.209,1.834 -0.502,2.775 0.601,-0.407 1.256,-1.167 1.677,-2.589 0,0 0.343,-1.478 2.606,-2.402 0.474,-1.001 0.838,-2.129 0.899,-3.296 0,0 0.062,-2.252 0.954,-3.293 0,0 1.286,-2.184 3.91,0.166 0,0 0.736,0.643 0.969,1.893 0,0 0.247,1.791 2.003,2.912 0,0 2.332,1.481 4.498,0.26 0,0 1.433,-0.475 2.287,-3.271 0,0 0.392,-1.592 1.319,-0.875 0,0 1.725,0.978 2.783,-0.85 0,0 0.627,-1.052 1.785,-1.275 0,0 1.174,-0.264 1.82,-0.552 0,0 1.578,-0.506 0.154,-2.26 0,0 -1.213,-1.719 -3.36,-0.893 0,0 -1.506,0.314 -2.956,0.023 0,0 -2.576,-0.502 -3.3,1.497 0,0 -0.204,0.414 0.122,1.075 0,0 -1.551,0.431 -2.049,2.65 0,0 -0.193,1.666 -1.226,0.867 0,0 -0.401,0.113 -1.166,-2.772 0,0 -0.653,-2.127 -3.559,-3.514 0,0 -2.353,-1.174 -4.974,-0.236 -0.646,2.923 -2.61,5.342 -2.61,5.342 -0.584,0.721 -1.193,1.334 -1.797,1.858 z m 21.309,-5.049 c 0.367,0 0.666,0.317 0.666,0.708 0,0.391 -0.299,0.708 -0.666,0.708 -0.369,0 -0.668,-0.317 -0.668,-0.708 0,-0.391 0.299,-0.708 0.668,-0.708 z" /><path
           inkscape:connector-curvature="0"
           id="path26"
           d="m 73,41.663 c 0,0 -2.352,2.596 -2.684,3.453 0.231,1.278 0.283,3.687 0.254,6.224 0.791,-2.516 2.703,-4.014 2.703,-4.014 0.555,-0.414 1.115,-0.698 1.666,-0.895 0.148,-0.68 0.229,-1.387 0.193,-2.098 0,0 -0.166,-2.247 0.616,-3.373 0,0 0.308,-0.657 1.026,-0.952 -1.118,0.186 -3.071,0.642 -3.774,1.655 z" /><path
           inkscape:connector-curvature="0"
           id="path28"
           d="m 79.656,40.731 c 0,0 0.798,0.563 1.154,1.783 0,0 0.428,1.758 2.289,2.695 0,0 2.469,1.238 4.5,-0.197 0,0 1.377,-0.617 1.944,-3.487 0,0 0.228,-1.622 1.226,-1.004 0,0 1.812,0.797 2.682,-1.127 0,0 0.52,-1.11 1.648,-1.449 0,0 1.141,-0.382 1.754,-0.733 0,0 1.52,-0.664 -0.074,-2.265 0,0 -1.381,-1.587 -3.434,-0.548 0,0 -1.468,0.465 -2.938,0.322 0,0 -2.614,-0.239 -3.132,1.823 0,0 -0.162,0.432 0.229,1.057 0,0 -1.498,0.586 -1.769,2.844 0,0 -0.025,1.677 -1.133,0.987 0,0 -0.389,0.153 -1.439,-2.64 0,0 -0.117,-0.264 -0.393,-0.644 -0.651,0.492 -2.537,1.722 -4.979,1.74 0.514,0.067 1.128,0.306 1.865,0.843 z M 91.5,36.244 c 0.367,0 0.666,0.317 0.666,0.708 0,0.391 -0.299,0.708 -0.666,0.708 -0.369,0 -0.668,-0.317 -0.668,-0.708 0,-0.391 0.299,-0.708 0.668,-0.708 z" /><path
           inkscape:connector-curvature="0"
           id="path30"
           d="m 70.57,51.34 c -0.01,0.764 -0.024,1.535 -0.045,2.293 0.604,-0.521 1.213,-1.137 1.803,-1.857 0,0 1.966,-2.419 2.611,-5.343 -0.551,0.197 -1.111,0.48 -1.666,0.895 0,-0.002 -1.912,1.496 -2.703,4.012 z" /><path
           inkscape:connector-curvature="0"
           id="path32"
           d="m 29.421,50.261 c -0.002,-1.996 0.058,-3.809 0.231,-4.918 0,-0.002 -0.003,-0.01 -0.003,-0.01 0.172,-0.478 -2.722,-3.67 -2.722,-3.67 -0.479,-0.692 -1.543,-1.122 -2.527,-1.386 0.392,0.311 0.568,0.684 0.568,0.684 0.782,1.126 0.616,3.373 0.616,3.373 -0.037,0.758 0.059,1.51 0.229,2.231 0.44,0.188 0.884,0.432 1.324,0.761 0.001,0 1.382,1.074 2.284,2.935 z" /><path
           inkscape:connector-curvature="0"
           id="path34"
           d="m 17.699,38.522 c -0.094,0.161 -0.145,0.271 -0.145,0.271 -1.052,2.793 -1.44,2.64 -1.44,2.64 -1.106,0.69 -1.132,-0.987 -1.132,-0.987 -0.271,-2.258 -1.769,-2.844 -1.769,-2.844 0.392,-0.625 0.23,-1.057 0.23,-1.057 C 12.925,34.483 10.311,34.722 10.311,34.722 8.839,34.865 7.373,34.4 7.373,34.4 5.32,33.36 3.938,34.948 3.938,34.948 c -1.593,1.601 -0.074,2.265 -0.074,2.265 0.614,0.352 1.755,0.733 1.755,0.733 1.13,0.339 1.648,1.449 1.648,1.449 0.868,1.924 2.682,1.127 2.682,1.127 0.997,-0.618 1.225,1.004 1.225,1.004 0.567,2.87 1.944,3.487 1.944,3.487 2.031,1.435 4.501,0.197 4.501,0.197 1.86,-0.938 2.288,-2.695 2.288,-2.695 0.357,-1.22 1.155,-1.783 1.155,-1.783 0.621,-0.452 1.152,-0.687 1.611,-0.792 -0.212,-0.028 -0.339,-0.039 -0.339,-0.039 -2.032,0.042 -3.701,-0.785 -4.635,-1.379 z M 10.25,38.368 c -0.369,0 -0.667,-0.317 -0.667,-0.708 0,-0.391 0.298,-0.708 0.667,-0.708 0.368,0 0.667,0.317 0.667,0.708 0,0.391 -0.299,0.708 -0.667,0.708 z" /><path
           inkscape:connector-curvature="0"
           id="path36"
           d="m 29.455,52.943 c -0.02,-0.899 -0.033,-1.808 -0.034,-2.683 -0.902,-1.861 -2.283,-2.935 -2.283,-2.935 -0.44,-0.329 -0.884,-0.573 -1.324,-0.761 0.674,2.862 2.577,5.208 2.577,5.208 0.349,0.43 0.706,0.815 1.064,1.171 z" /><path
           inkscape:connector-curvature="0"
           id="path38"
           d="m 21.45,35.657 c 0,0 3.6,-1.37 6.538,1.328 0,0 2.018,1.954 2.372,4.877 0.34,-1.021 0.874,-2.229 1.707,-3.496 -0.489,-0.134 -0.996,-0.379 -1.502,-0.782 0,0 0.071,-0.604 -0.33,-1.333 -1.475,-0.735 -3.891,-1.662 -6.233,-1.342 0,0 -2.225,0.359 -3.414,-0.322 0,0 -2.386,-0.855 -0.569,-3.872 0,0 0.493,-0.844 1.676,-1.306 0,0 1.714,-0.578 2.488,-2.513 0,0 1.017,-2.569 -0.588,-4.468 0,0 -0.734,-1.318 -3.643,-1.633 0,0 -1.636,-0.085 -1.107,-1.132 0,0 0.636,-1.876 -1.355,-2.575 0,0 -1.151,-0.42 -1.587,-1.515 0,0 -0.479,-1.103 -0.882,-1.684 0,0 -0.794,-1.456 -2.25,0.271 0,0 -1.461,1.514 -0.247,3.469 0,0 0.59,1.42 0.576,2.899 0,0 -0.011,2.625 2.088,2.962 0,0 0.444,0.123 1.033,-0.321 0,0 0.713,1.441 2.987,1.515 0,0 1.673,-0.121 1.082,1.042 0,0 0.187,0.373 -2.505,1.664 0,0 -1.967,1.041 -2.785,4.153 0,0 -1.052,3.705 1.89,6.397 0,0 0.3,0.258 0.811,0.583 0.339,-0.585 1.375,-2.015 3.749,-2.866 z M 16.067,20.19 c -0.369,0 -0.667,-0.317 -0.667,-0.708 0,-0.391 0.298,-0.708 0.667,-0.708 0.368,0 0.667,0.317 0.667,0.708 0,0.391 -0.299,0.708 -0.667,0.708 z" /><path
           inkscape:connector-curvature="0"
           id="path40"
           d="m 22.673,39.939 c 0.379,0.049 1.034,0.152 1.728,0.338 -0.368,-0.292 -0.931,-0.521 -1.728,-0.338 z" /><path
           inkscape:connector-curvature="0"
           id="path42"
           d="m 26.928,41.663 c 0,0 2.894,3.192 2.722,3.67 0,0 0.002,0.008 0.003,0.01 0.032,-0.204 0.067,-0.389 0.107,-0.542 0,0 0.02,-1.196 0.6,-2.938 -0.354,-2.923 -2.372,-4.877 -2.372,-4.877 -2.938,-2.698 -6.538,-1.328 -6.538,-1.328 -2.374,0.851 -3.41,2.28 -3.751,2.865 0.935,0.594 2.603,1.421 4.636,1.378 0,0 0.126,0.011 0.339,0.039 0.796,-0.183 1.359,0.046 1.728,0.338 0.983,0.263 2.046,0.693 2.526,1.385 z" /><path
           inkscape:connector-curvature="0"
           id="path44"
           d="m 69.959,37.453 c -0.686,0.543 -1.369,0.802 -2.01,0.885 1.287,1.967 1.854,3.794 2.1,4.99 0.174,-0.627 0.256,-1.087 0.256,-1.087 0.207,-3.139 2.426,-5.255 2.426,-5.255 2.938,-2.698 6.539,-1.328 6.539,-1.328 1.957,0.701 3.002,1.798 3.504,2.491 0.158,-0.12 0.268,-0.209 0.268,-0.209 2.941,-2.693 1.891,-6.397 1.891,-6.397 -0.818,-3.112 -2.785,-4.153 -2.785,-4.153 -2.69,-1.291 -2.504,-1.664 -2.504,-1.664 -0.593,-1.163 1.082,-1.042 1.082,-1.042 2.272,-0.073 2.985,-1.515 2.985,-1.515 0.588,0.444 1.033,0.321 1.033,0.321 2.098,-0.337 2.088,-2.962 2.088,-2.962 -0.015,-1.479 0.576,-2.899 0.576,-2.899 1.213,-1.956 -0.248,-3.469 -0.248,-3.469 -1.455,-1.727 -2.25,-0.271 -2.25,-0.271 -0.402,0.581 -0.882,1.684 -0.882,1.684 -0.438,1.095 -1.588,1.515 -1.588,1.515 -1.991,0.699 -1.354,2.575 -1.354,2.575 0.528,1.047 -1.106,1.132 -1.106,1.132 -2.908,0.315 -3.644,1.633 -3.644,1.633 -1.604,1.899 -0.588,4.468 -0.588,4.468 0.772,1.935 2.487,2.513 2.487,2.513 1.184,0.462 1.677,1.306 1.677,1.306 1.815,3.017 -0.57,3.872 -0.57,3.872 -1.188,0.681 -3.413,0.322 -3.413,0.322 -1.996,-0.272 -4.041,0.361 -5.517,1.009 -0.539,0.817 -0.453,1.535 -0.453,1.535 z M 84.334,19.482 c 0.368,0 0.666,0.318 0.666,0.708 0,0.39 -0.298,0.708 -0.666,0.708 -0.369,0 -0.667,-0.317 -0.667,-0.708 0,-0.391 0.298,-0.708 0.667,-0.708 z" /><path
           inkscape:connector-curvature="0"
           id="path46"
           d="m 76.775,40.01 c 0.486,-0.08 0.817,-0.109 0.817,-0.109 0.069,10e-4 0.132,-0.011 0.199,-0.012 -0.402,-0.053 -0.738,0.007 -1.016,0.121 z" /><path
           inkscape:connector-curvature="0"
           id="path48"
           d="m 79.27,35.657 c 0,0 -3.601,-1.37 -6.539,1.328 0,0 -2.219,2.117 -2.426,5.255 0,0 -0.082,0.46 -0.256,1.087 0.182,0.884 0.189,1.424 0.189,1.424 0.029,0.107 0.055,0.231 0.078,0.364 C 70.648,44.259 73,41.663 73,41.663 c 0.703,-1.013 2.656,-1.469 3.775,-1.653 0.276,-0.114 0.613,-0.173 1.018,-0.121 2.443,-0.019 4.328,-1.249 4.98,-1.74 -0.502,-0.694 -1.546,-1.791 -3.503,-2.492 z" /><path
           sodipodi:nodetypes="cccccccccc"
           inkscape:connector-curvature="0"
           id="path50"
           d="m 35.512,34.583 c 1.378,-1.128 3.082,-2.201 5.2,-3.122 0,0 0.06,-0.011 0.145,-0.027 0.651,-1.981 2.937,-3.6 5.964,-4.325 0.495088,-4.162074 0.875121,-8.819763 0.685909,-13.26526 -5.381247,-3.408386 -26.727908,-9.1421227 -7.318501,-1.352951 5.90071,9.293012 -1.69437,12.399254 -5.020408,19.262211 -0.219,0.502 -0.396,0.992 -0.548,1.47 0.325,0.339 0.618,0.731 0.83,1.189 0,10e-4 0.027,0.071 0.062,0.171 z" /><path
           sodipodi:nodetypes="cccccccccc"
           inkscape:connector-curvature="0"
           id="path52"
           d="m 59.971,31.711 c 1.997,0.94 3.609,2.014 4.905,3.137 0.106,-0.329 0.197,-0.567 0.197,-0.567 0.167,-0.361 0.386,-0.68 0.628,-0.966 -0.156,-0.506 -0.346,-1.027 -0.578,-1.561 0,0 -1.898,-4.341 -5.33,-5.902 -7.107554,-4.068645 -0.306861,-31.3820889 -6.381077,-11.541651 0,0 -2.305923,6.466651 -1.252923,10.312651 0,0 0.332,1.123 1.22,2.363 3.446,0.679 6.038,2.498 6.592,4.725 z" /><path
           inkscape:connector-curvature="0"
           id="path54"
           d="m 69.634,63.486 c -0.108,0.328 -0.224,0.648 -0.345,0.957 0.629,0.438 1.271,0.953 1.906,1.568 0,0 0.662,0.647 1.425,1.693 1.378,-1.273 1.83,-3.197 1.83,-3.197 0.272,-1.972 0.733,-2.089 0.733,-2.089 0.893,-0.792 1.406,0.879 1.406,0.879 0.342,1.194 2.149,2.279 2.149,2.279 -0.121,0.883 1.114,1.715 1.114,1.715 1.35,1.199 2.795,0.286 2.795,0.286 0.44,-0.489 1.884,-0.396 1.884,-0.396 2.001,0.401 3.243,-0.781 3.243,-0.781 1.317,-1.225 0.744,-2.239 0.744,-2.239 -0.474,-0.834 -1.279,-0.568 -1.279,-0.568 L 86.727,63.45 c -0.728,-0.354 -1.724,-0.845 -1.724,-0.845 -0.833,-0.965 -2,-1.166 -2,-1.166 -0.815,-0.258 -1.966,0.25 -1.966,0.25 -0.545,0.645 -0.852,-0.236 -0.852,-0.236 -0.554,-0.979 -1.734,-2.561 -1.734,-2.561 -1.406,-1.552 -3.505,-1.035 -3.505,-1.035 -0.345,0.095 -0.649,0.203 -0.931,0.317 -1.055,2.226 -2.646,3.822 -2.646,3.822 -0.572,0.581 -1.158,1.068 -1.735,1.49 z m 12.712,0.432 c 0.368,0 0.666,0.316 0.666,0.708 0,0.392 -0.298,0.708 -0.666,0.708 -0.369,0 -0.666,-0.316 -0.666,-0.708 0,-0.392 0.297,-0.708 0.666,-0.708 z" /><path
           inkscape:connector-curvature="0"
           id="path56"
           d="m 71.195,66.014 c -0.635,-0.617 -1.277,-1.133 -1.906,-1.568 -0.655,1.679 -1.408,3.006 -1.408,3.006 -0.01,0.05 -0.025,0.104 -0.038,0.156 0.003,0.007 0.007,0.014 0.009,0.021 0.428,0.304 1.01,0.763 1.653,1.408 0.748,-0.044 2.195,-0.672 2.195,-0.672 0.346,-0.181 0.647,-0.407 0.92,-0.657 -0.763,-1.048 -1.425,-1.694 -1.425,-1.694 z" /><path
           inkscape:connector-curvature="0"
           id="path58"
           d="m 68.751,69.073 c 0,0 0,0 0.744,-0.037 0.003,0 0.007,-0.001 0.01,-0.001 -0.644,-0.646 -1.228,-1.105 -1.653,-1.408 0.369,0.882 0.899,1.446 0.899,1.446 z" /><path
           inkscape:connector-curvature="0"
           id="path60"
           d="m 71.413,60.579 c -0.421,1.422 -1.076,2.182 -1.677,2.589 -0.033,0.107 -0.067,0.213 -0.104,0.318 0.577,-0.422 1.163,-0.909 1.741,-1.487 0,0 1.591,-1.597 2.646,-3.822 -2.263,0.925 -2.606,2.402 -2.606,2.402 z" /><path
           inkscape:connector-curvature="0"
           id="path62"
           d="m 30.776,64.639 c -0.2,-0.5 -0.392,-1.035 -0.555,-1.578 -0.395,-0.319 -0.791,-0.668 -1.184,-1.062 0,0 -1.518,-1.526 -2.57,-3.673 -0.365,-0.174 -0.781,-0.333 -1.27,-0.467 0,0 -2.099,-0.518 -3.505,1.033 0,0 -1.182,1.582 -1.734,2.562 0,0 -0.307,0.881 -0.852,0.235 0,0 -1.15,-0.506 -1.966,-0.25 0,0 -1.167,0.203 -2,1.168 0,0 -0.996,0.488 -1.723,0.844 l -0.512,0.143 c 0,0 -0.807,-0.266 -1.279,0.568 0,0 -0.574,1.016 0.744,2.24 0,0 1.242,1.183 3.243,0.781 0,0 1.442,-0.095 1.884,0.396 0,0 1.445,0.913 2.794,-0.286 0,0 1.236,-0.832 1.115,-1.715 0,0 1.809,-1.085 2.149,-2.279 0,0 0.515,-1.671 1.407,-0.879 0,0 0.461,0.117 0.733,2.089 0,0 0.476,2.029 1.944,3.3 0.791,-1.104 1.497,-1.795 1.497,-1.795 0.548,-0.532 1.098,-0.981 1.64,-1.375 z m -12.943,0.695 c -0.369,0 -0.667,-0.316 -0.667,-0.708 0,-0.392 0.298,-0.708 0.667,-0.708 0.368,0 0.667,0.316 0.667,0.708 0,0.392 -0.298,0.708 -0.667,0.708 z" /><path
           inkscape:connector-curvature="0"
           id="path64"
           d="m 30.653,69.036 c 0.035,0.002 0.062,0.003 0.093,0.005 0.543,-0.547 1.044,-0.959 1.445,-1.259 -0.024,-0.103 -0.055,-0.21 -0.076,-0.31 0,0 -0.702,-1.24 -1.34,-2.834 -0.542,0.395 -1.093,0.844 -1.638,1.373 0,0 -0.706,0.691 -1.497,1.795 0.242,0.211 0.508,0.4 0.806,0.557 0.002,0 1.462,0.634 2.207,0.673 z" /><path
           inkscape:connector-curvature="0"
           id="path66"
           d="m 30.747,69.041 c 0.643,0.032 0.651,0.032 0.651,0.032 0,0 0.448,-0.476 0.808,-1.236 -0.004,-0.019 -0.009,-0.036 -0.013,-0.055 -0.402,0.3 -0.903,0.712 -1.446,1.259 z" /><path
           inkscape:connector-curvature="0"
           id="path68"
           d="m 30.221,63.061 c -0.004,-0.017 -0.009,-0.031 -0.014,-0.047 -0.541,-0.436 -1.098,-1.172 -1.472,-2.435 0,0 -0.31,-1.326 -2.268,-2.253 1.052,2.146 2.57,3.673 2.57,3.673 0.393,0.394 0.79,0.741 1.184,1.062 z" /><path
           inkscape:connector-curvature="0"
           id="path70"
           d="m 32.529,37.702 c 0.43,-0.585 0.929,-1.178 1.503,-1.766 0.098,-0.824 0.279,-1.738 0.589,-2.713 -1.206,-1.256 -2.893,-1.737 -2.893,-1.737 -1.957,-0.363 -2.053,-0.829 -2.053,-0.829 -0.75,-0.929 0.943,-1.365 0.943,-1.365 1.209,-0.285 2.376,-2.041 2.376,-2.041 0.876,0.162 1.765,-1.035 1.765,-1.035 1.261,-1.292 0.416,-2.778 0.416,-2.778 -0.468,-0.463 -0.308,-1.9 -0.308,-1.9 0.494,-1.98 -0.63,-3.276 -0.63,-3.276 -1.162,-1.374 -2.203,-0.847 -2.203,-0.847 -0.855,0.433 -0.627,1.251 -0.627,1.251 l -0.166,0.504 c -0.388,0.709 -0.923,1.682 -0.923,1.682 -1.002,0.788 -1.259,1.944 -1.259,1.944 -0.294,0.803 0.159,1.975 0.159,1.975 0.619,0.574 -0.275,0.84 -0.275,0.84 -1.003,0.507 -2.638,1.614 -2.638,1.614 -1.614,1.333 -1.196,3.453 -1.196,3.453 0.706,3.146 2.553,3.66 2.553,3.66 1.492,0.518 2.218,1.265 2.573,1.913 0.876,0.437 1.422,0.806 1.422,0.806 0.308,0.211 0.595,0.427 0.872,0.645 z m 0.784,-15.178 c 0.368,0 0.667,0.317 0.667,0.708 0,0.391 -0.298,0.708 -0.667,0.708 -0.369,0 -0.667,-0.317 -0.667,-0.708 0,-0.391 0.299,-0.708 0.667,-0.708 z" /><path
           inkscape:connector-curvature="0"
           id="path72"
           d="m 30.564,37.584 c 0.507,0.402 1.013,0.647 1.502,0.782 0.145,-0.22 0.298,-0.441 0.462,-0.664 -0.276,-0.218 -0.563,-0.435 -0.873,-0.645 0,0 -0.545,-0.369 -1.422,-0.806 0.402,0.73 0.331,1.333 0.331,1.333 z" /><path
           inkscape:connector-curvature="0"
           id="path74"
           d="m 35.512,34.583 c -0.035,-0.1 -0.062,-0.17 -0.062,-0.17 -0.212,-0.458 -0.504,-0.851 -0.83,-1.189 -0.31,0.975 -0.491,1.889 -0.589,2.713 0.446,-0.457 0.938,-0.91 1.481,-1.354 z" /><path
           inkscape:connector-curvature="0"
           id="path76"
           d="m 67.471,37.645 c 0.254,-0.199 0.52,-0.396 0.801,-0.587 0,0 0.854,-0.575 2.14,-1.139 0.392,-0.597 1.112,-1.247 2.452,-1.711 0,0 1.847,-0.513 2.553,-3.66 0,0 0.419,-2.12 -1.195,-3.453 0,0 -1.636,-1.107 -2.639,-1.614 0,0 -0.895,-0.266 -0.275,-0.84 0,0 0.452,-1.172 0.159,-1.975 0,0 -0.257,-1.156 -1.26,-1.944 0,0 -0.534,-0.972 -0.922,-1.682 l -0.166,-0.504 c 0,0 0.228,-0.818 -0.627,-1.251 0,0 -1.041,-0.527 -2.203,0.847 0,0 -1.125,1.295 -0.631,3.276 0,0 0.159,1.437 -0.308,1.9 0,0 -0.846,1.486 0.414,2.778 0,0 0.889,1.196 1.766,1.035 0,0 1.168,1.756 2.377,2.041 0,0 1.691,0.437 0.943,1.365 0,0 -0.097,0.466 -2.054,0.829 0,0 -1.886,0.537 -3.095,1.96 0.326,1.054 0.505,2.036 0.591,2.906 0.438,0.474 0.831,0.95 1.179,1.423 z M 68,23.94 c -0.369,0 -0.667,-0.317 -0.667,-0.708 0,-0.391 0.298,-0.708 0.667,-0.708 0.368,0 0.666,0.317 0.666,0.708 0,0.391 -0.298,0.708 -0.666,0.708 z" /><path
           inkscape:connector-curvature="0"
           id="path78"
           d="m 67.471,37.645 c 0.17,0.232 0.328,0.463 0.479,0.693 0.641,-0.083 1.324,-0.341 2.01,-0.885 0,0 -0.086,-0.717 0.451,-1.535 -1.284,0.564 -2.139,1.139 -2.139,1.139 -0.284,0.192 -0.547,0.389 -0.801,0.588 z" /><path
           inkscape:connector-curvature="0"
           id="path80"
           d="m 64.876,34.848 c 0.522,0.452 0.991,0.912 1.416,1.373 -0.086,-0.871 -0.265,-1.853 -0.591,-2.906 -0.242,0.287 -0.461,0.605 -0.628,0.966 0,0 -0.091,0.238 -0.197,0.567 z" /><path
           inkscape:connector-curvature="0"
           id="path82"
           d="m 44.571,29.185 c 0,0 -1.149,0.874 -2.012,1.962 1.988,-0.309 5.169,-0.718 7.441,-0.584 l 0,-0.065 c 2.38,-0.14 5.759,0.316 7.717,0.629 -0.861,-1.079 -1.996,-1.941 -1.996,-1.941 -1.029,-0.62 -1.791,-1.433 -2.341,-2.2 -0.946,-0.187 -1.953,-0.291 -3.001,-0.291 -1.258,0 -2.456,0.15 -3.559,0.415 -0.541,0.729 -1.274,1.489 -2.249,2.075 z" /><path
           inkscape:connector-curvature="0"
           id="path84"
           d="m 40.856,31.434 c 0.257,-0.048 0.871,-0.158 1.702,-0.287 0.863,-1.088 2.012,-1.962 2.012,-1.962 0.975,-0.586 1.708,-1.346 2.25,-2.076 -3.027,0.725 -5.312,2.344 -5.964,4.325 z" /><path
           inkscape:connector-curvature="0"
           id="path86"
           d="m 55.721,29.185 c 0,0 1.135,0.862 1.996,1.941 0.95,0.152 1.57,0.271 1.57,0.271 0.234,0.103 0.459,0.208 0.684,0.314 -0.554,-2.227 -3.146,-4.046 -6.591,-4.726 0.55,0.767 1.309,1.58 2.341,2.2 z" /><path
           inkscape:connector-curvature="0"
           id="path88"
           d="m 31.495,55.396 c -0.007,-0.256 -0.014,-0.514 -0.02,-0.771 -0.234,-0.162 -0.471,-0.333 -0.713,-0.521 0.203,0.436 0.449,0.89 0.733,1.292 z" /><path
           inkscape:connector-curvature="0"
           id="path90"
           d="m 41.296,35.348 c 0.114,-0.052 0.212,-0.109 0.329,-0.16 0,0 0.02,-0.004 0.031,-0.006 -0.103,-0.127 -0.201,-0.256 -0.288,-0.388 -0.025,0.181 -0.049,0.366 -0.072,0.554 z" /><path
           inkscape:connector-curvature="0"
           id="path92"
           d="m 33.434,38.479 c 0.202,0.187 0.393,0.374 0.574,0.561 -0.022,-0.188 -0.041,-0.405 -0.055,-0.643 -0.166,0.037 -0.34,0.064 -0.519,0.082 z" /><path
           inkscape:connector-curvature="0"
           id="path94"
           d="m 41.688,81 c 0,0 -2.062,-1.875 -3.312,-3.688 0,0 -0.952,-1.494 -1.993,-3.445 -0.086,0.066 -0.15,0.101 -0.15,0.101 -0.167,-0.028 -0.57,0.335 -1.032,0.827 1.029,1.876 1.908,3.252 1.908,3.252 1.386,2.004 3.674,4.078 3.674,4.078 C 45.078,88 50,86.824 50,86.824 L 50,85.25 C 49.994,85.251 45.56,86.311 41.688,81 Z" /><path
           inkscape:connector-curvature="0"
           id="path96"
           d="m 34.884,40.032 c 0.007,-0.008 0.012,-0.016 0.019,-0.023 -0.013,0 -0.026,-10e-4 -0.039,-0.002 0.006,0.008 0.013,0.017 0.02,0.025 z" /><path
           inkscape:connector-curvature="0"
           id="path98"
           d="m 36.231,73.968 c 0,0 0.064,-0.032 0.15,-0.101 -0.567,-1.062 -1.156,-2.262 -1.636,-3.432 -0.492,0.256 -0.977,0.523 -1.353,0.736 0.56,1.268 1.207,2.527 1.806,3.622 0.464,-0.49 0.867,-0.854 1.033,-0.825 z" /><path
           inkscape:connector-curvature="0"
           id="path100"
           d="m 32.252,67.736 c 0.52,-0.383 0.854,-0.561 0.854,-0.561 0.302,0.281 0.567,0.545 0.825,0.803 -0.017,-0.074 -0.041,-0.154 -0.056,-0.229 0,0 -0.833,-1.471 -1.457,-3.216 -0.032,-0.019 -0.063,-0.032 -0.096,-0.052 0.541,1.257 0.305,2.415 -0.07,3.255 z" /><path
           inkscape:connector-curvature="0"
           id="path102"
           d="m 33.105,67.177 c 0,0 -0.334,0.179 -0.854,0.562 -0.016,0.033 -0.031,0.066 -0.047,0.1 0.249,1.028 0.677,2.18 1.188,3.336 0.376,-0.213 0.861,-0.48 1.353,-0.736 -0.352,-0.857 -0.64,-1.696 -0.815,-2.457 -0.257,-0.261 -0.522,-0.524 -0.825,-0.805 z" /><path
           inkscape:connector-curvature="0"
           id="path104"
           d="m 31.844,63.63 c 0.053,0.073 0.09,0.146 0.136,0.218 0.061,-0.035 0.121,-0.07 0.181,-0.104 -0.241,-0.806 -0.411,-1.632 -0.411,-2.367 0,0 -0.168,-2.815 -0.255,-5.978 -0.284,-0.403 -0.53,-0.857 -0.732,-1.295 -0.431,-0.338 -0.87,-0.726 -1.308,-1.16 0.086,3.834 0.305,7.479 0.305,7.479 0,0.808 0.185,1.708 0.448,2.593 0.838,0.672 1.636,0.614 1.636,0.614 z" /><path
           inkscape:connector-curvature="0"
           id="path106"
           d="m 32.323,64.482 c 0.032,0.02 0.063,0.033 0.096,0.052 -0.092,-0.259 -0.178,-0.524 -0.257,-0.792 -0.061,0.035 -0.121,0.068 -0.181,0.104 0.137,0.216 0.251,0.427 0.342,0.636 z" /><path
           inkscape:connector-curvature="0"
           id="path108"
           d="m 30.763,54.104 c 0.242,0.188 0.479,0.359 0.713,0.521 -0.067,-3.012 -0.045,-6.154 0.274,-7.375 0,0 0.013,-0.419 0.138,-1.096 -1.856,0.374 -2.215,-0.742 -2.235,-0.812 -0.174,1.11 -0.234,2.923 -0.231,4.918 0.293,0.604 0.536,1.289 0.664,2.047 -10e-4,0.002 0.239,0.851 0.677,1.797 z" /><path
           inkscape:connector-curvature="0"
           id="path110"
           d="m 30.085,52.309 c -0.128,-0.759 -0.371,-1.443 -0.664,-2.046 0.001,0.875 0.014,1.783 0.034,2.681 0.438,0.436 0.877,0.822 1.308,1.16 -0.438,-0.946 -0.678,-1.795 -0.678,-1.795 z" /><path
           inkscape:connector-curvature="0"
           id="path112"
           d="m 31.905,46.058 c 0.264,-1.352 0.995,-3.674 2.979,-6.026 -0.007,-0.008 -0.014,-0.017 -0.021,-0.025 -0.234,-0.014 -0.451,-0.021 -0.702,-0.041 0,0 -0.086,-0.338 -0.154,-0.926 -0.181,-0.187 -0.372,-0.374 -0.574,-0.561 -0.429,0.042 -0.889,0.019 -1.367,-0.113 -0.833,1.267 -1.367,2.475 -1.707,3.496 0.016,0.128 0.046,0.246 0.055,0.378 10e-4,0 0.44,2.498 1.491,3.818 z" /><path
           inkscape:connector-curvature="0"
           id="path114"
           d="m 31.888,46.154 c 0.006,-0.033 0.01,-0.062 0.017,-0.096 -1.05,-1.32 -1.49,-3.818 -1.49,-3.818 -0.009,-0.132 -0.04,-0.25 -0.055,-0.378 -0.58,1.743 -0.6,2.938 -0.6,2.938 -0.04,0.153 -0.075,0.338 -0.107,0.542 0.019,0.07 0.379,1.186 2.235,0.812 z" /><path
           inkscape:connector-curvature="0"
           id="path116"
           d="m 36.023,37.391 c 0,0 -0.848,0.731 -2.07,1.006 0.015,0.238 0.033,0.455 0.055,0.643 0.315,0.327 0.6,0.65 0.855,0.967 0.013,0 0.026,0.001 0.039,0.002 1.406,-1.659 3.449,-3.321 6.394,-4.661 0.023,-0.188 0.047,-0.373 0.072,-0.554 -0.449,-0.68 -0.703,-1.42 -0.703,-2.197 0,-0.398 0.067,-0.787 0.191,-1.163 -0.085,0.016 -0.145,0.027 -0.145,0.027 -2.118,0.92 -3.821,1.993 -5.2,3.122 0.145,0.402 0.505,1.465 0.508,2.064 0.004,0.744 0.004,0.744 0.004,0.744 z" /><path
           inkscape:connector-curvature="0"
           id="path118"
           d="m 34.162,39.966 c 0.251,0.02 0.468,0.027 0.702,0.041 -0.256,-0.317 -0.54,-0.64 -0.855,-0.967 0.067,0.588 0.153,0.926 0.153,0.926 z" /><path
           inkscape:connector-curvature="0"
           id="path120"
           d="m 30.221,63.061 c 0.164,0.543 0.355,1.078 0.555,1.578 0.284,-0.207 0.565,-0.397 0.843,-0.572 -0.456,-0.29 -0.926,-0.626 -1.398,-1.006 z" /><path
           inkscape:connector-curvature="0"
           id="path122"
           d="m 32.323,64.482 c -0.23,-0.127 -0.465,-0.267 -0.704,-0.416 -0.277,0.174 -0.559,0.365 -0.843,0.572 0.638,1.594 1.34,2.834 1.34,2.834 0.021,0.1 0.051,0.207 0.076,0.31 0.019,-0.015 0.041,-0.031 0.06,-0.046 0.375,-0.84 0.611,-1.998 0.071,-3.254 z" /><path
           inkscape:connector-curvature="0"
           id="path124"
           d="m 32.192,67.782 c 0.004,0.019 0.009,0.036 0.013,0.055 0.016,-0.032 0.031,-0.065 0.047,-0.101 -0.019,0.015 -0.041,0.034 -0.06,0.046 z" /><path
           inkscape:connector-curvature="0"
           id="path126"
           d="m 31.98,63.848 c -0.046,-0.072 -0.083,-0.145 -0.136,-0.218 0,0 -0.797,0.06 -1.636,-0.616 0.004,0.016 0.009,0.03 0.014,0.047 0.472,0.381 0.941,0.717 1.398,1.006 0.12,-0.077 0.24,-0.15 0.36,-0.219 z" /><path
           inkscape:connector-curvature="0"
           id="path128"
           d="m 31.619,64.066 c 0.239,0.149 0.473,0.289 0.704,0.416 -0.091,-0.209 -0.205,-0.422 -0.343,-0.637 -0.12,0.072 -0.24,0.145 -0.361,0.221 z" /><path
           inkscape:connector-curvature="0"
           id="path130"
           d="m 33.953,38.397 c -0.04,-0.659 -0.036,-1.496 0.079,-2.461 -0.574,0.588 -1.073,1.181 -1.503,1.766 0.324,0.256 0.624,0.516 0.905,0.777 0.179,-0.018 0.353,-0.045 0.519,-0.082 z" /><path
           inkscape:connector-curvature="0"
           id="path132"
           d="m 33.434,38.479 c -0.281,-0.261 -0.582,-0.521 -0.905,-0.777 -0.164,0.223 -0.317,0.444 -0.462,0.664 0.478,0.132 0.938,0.155 1.367,0.113 z" /><path
           inkscape:connector-curvature="0"
           id="path134"
           d="m 33.953,38.397 c 1.222,-0.274 2.07,-1.006 2.07,-1.006 0,0 0,0 -0.003,-0.745 -0.003,-0.599 -0.364,-1.662 -0.508,-2.064 -0.543,0.444 -1.035,0.897 -1.48,1.354 -0.115,0.965 -0.119,1.802 -0.079,2.461 z" /><path
           inkscape:connector-curvature="0"
           id="path136"
           d="m 41.368,34.794 c 0.087,0.132 0.186,0.26 0.288,0.388 0.324,-0.062 5.261,-0.988 8.343,-0.807 l 0,-3.812 c -2.272,-0.133 -5.453,0.275 -7.441,0.584 -0.5,0.63 -0.904,1.332 -0.933,1.979 0,0 -0.133,0.765 -0.257,1.668 z" /><path
           inkscape:connector-curvature="0"
           id="path138"
           d="m 41.368,34.794 c 0.124,-0.903 0.257,-1.667 0.257,-1.667 0.029,-0.647 0.433,-1.349 0.933,-1.979 -0.831,0.129 -1.445,0.239 -1.702,0.287 -0.124,0.376 -0.191,0.765 -0.191,1.163 10e-4,0.776 0.254,1.516 0.703,2.196 z" /><path
           inkscape:connector-curvature="0"
           id="path140"
           d="m 68.514,55.096 c -0.008,0.278 -0.016,0.557 -0.022,0.828 0.383,-0.402 0.715,-0.932 0.985,-1.464 -0.332,0.238 -0.654,0.448 -0.963,0.636 z" /><path
           inkscape:connector-curvature="0"
           id="path142"
           d="m 58.893,35.438 c 0.041,0.02 0.08,0.04 0.121,0.059 -0.008,-0.06 -0.015,-0.119 -0.021,-0.179 -0.035,0.041 -0.066,0.081 -0.1,0.12 z" /><path
           inkscape:connector-curvature="0"
           id="path144"
           d="m 63.704,73.703 c -1.073,2.029 -2.079,3.609 -2.079,3.609 C 60.375,79.125 58.312,81 58.312,81 54.438,86.312 50,85.25 50,85.25 l 0,0 0,1.574 c 0,0 4.921,1.177 9.218,-4.705 0,0 2.288,-2.077 3.673,-4.082 0,0 0.932,-1.458 1.998,-3.42 -0.389,-0.396 -0.717,-0.674 -0.861,-0.649 -0.003,0 -0.162,-0.077 -0.324,-0.265 z" /><path
           inkscape:connector-curvature="0"
           id="path146"
           d="m 66.35,38.207 c -0.008,0.151 -0.017,0.295 -0.026,0.429 0.12,-0.115 0.249,-0.229 0.378,-0.346 -0.123,-0.024 -0.239,-0.052 -0.352,-0.083 z" /><path
           inkscape:connector-curvature="0"
           id="path148"
           d="m 68.115,46.172 c 0.031,0.173 0.058,0.327 0.076,0.461 0.168,-0.103 0.328,-0.237 0.475,-0.396 -0.165,-0.005 -0.352,-0.028 -0.551,-0.065 z" /><path
           inkscape:connector-curvature="0"
           id="path150"
           d="m 65.312,70.295 c -0.467,1.155 -1.045,2.342 -1.607,3.408 0.162,0.188 0.322,0.265 0.322,0.265 0.146,-0.024 0.474,0.253 0.861,0.649 0.596,-1.098 1.232,-2.348 1.777,-3.6 -0.403,-0.224 -0.886,-0.486 -1.353,-0.722 z" /><path
           inkscape:connector-curvature="0"
           id="path152"
           d="m 67.742,64.668 c -0.088,0.046 -0.176,0.094 -0.262,0.137 -0.608,1.622 -1.355,2.945 -1.355,2.945 -0.038,0.188 -0.089,0.383 -0.143,0.58 0.351,-0.364 0.729,-0.743 1.17,-1.153 0,0 0.268,0.146 0.688,0.441 10e-4,-0.004 0.002,-0.009 0.003,-0.013 -0.325,-0.785 -0.52,-1.815 -0.101,-2.937 z" /><path
           inkscape:connector-curvature="0"
           id="path154"
           d="m 65.982,68.33 c -0.164,0.621 -0.397,1.286 -0.672,1.965 0.469,0.236 0.951,0.498 1.354,0.723 0.517,-1.186 0.944,-2.361 1.174,-3.398 -0.42,-0.297 -0.688,-0.441 -0.688,-0.441 -0.439,0.408 -0.817,0.787 -1.168,1.151 z" /><path
           inkscape:connector-curvature="0"
           id="path156"
           d="m 68.49,55.924 c -0.09,2.941 -0.24,5.451 -0.24,5.451 0,0.688 -0.146,1.451 -0.361,2.206 0.107,0.06 0.219,0.124 0.329,0.188 0.031,-0.047 0.054,-0.093 0.087,-0.14 0,0 0.672,0.052 1.432,-0.462 0.293,-0.941 0.504,-1.914 0.504,-2.775 0,0 0.191,-3.201 0.287,-6.76 -0.355,0.309 -0.707,0.58 -1.051,0.827 -0.272,0.533 -0.604,1.062 -0.987,1.465 z" /><path
           inkscape:connector-curvature="0"
           id="path158"
           d="m 67.889,63.581 c -0.119,0.416 -0.26,0.827 -0.406,1.224 0.084,-0.043 0.172,-0.091 0.261,-0.137 0.11,-0.295 0.271,-0.596 0.476,-0.898 -0.113,-0.065 -0.224,-0.129 -0.331,-0.189 z" /><path
           inkscape:connector-curvature="0"
           id="path160"
           d="m 68.666,46.237 c -0.146,0.16 -0.307,0.293 -0.475,0.396 0.051,0.383 0.059,0.616 0.059,0.616 0.337,1.285 0.344,4.696 0.264,7.847 0.311,-0.188 0.631,-0.397 0.963,-0.637 0.547,-1.076 0.852,-2.15 0.852,-2.15 0.058,-0.341 0.146,-0.66 0.242,-0.97 0.029,-2.537 -0.021,-4.946 -0.254,-6.224 -0.034,0.092 -0.055,0.17 -0.037,0.217 -0.003,10e-4 -0.247,0.943 -1.614,0.905 z" /><path
           inkscape:connector-curvature="0"
           id="path162"
           d="m 69.477,54.46 c 0.344,-0.247 0.694,-0.521 1.051,-0.827 0.02,-0.758 0.035,-1.529 0.043,-2.293 -0.098,0.311 -0.186,0.629 -0.242,0.969 -0.002,0 -0.306,1.075 -0.852,2.151 z" /><path
           inkscape:connector-curvature="0"
           id="path164"
           d="m 66.7,38.29 c -0.13,0.115 -0.259,0.23 -0.378,0.346 -0.067,0.838 -0.193,1.331 -0.193,1.331 -0.363,0.029 -0.689,0.043 -1.02,0.059 2.051,2.425 2.762,4.815 3.006,6.147 0.199,0.037 0.386,0.06 0.551,0.064 0.686,-0.745 1.132,-2.002 1.383,-2.909 -0.246,-1.196 -0.812,-3.023 -2.1,-4.99 -0.442,0.057 -0.861,0.026 -1.249,-0.048 z" /><path
           inkscape:connector-curvature="0"
           id="path166"
           d="m 70.277,45.333 c -0.016,-0.046 0.004,-0.125 0.039,-0.217 -0.023,-0.133 -0.049,-0.257 -0.078,-0.364 0,0 -0.008,-0.541 -0.189,-1.424 -0.251,0.907 -0.697,2.165 -1.383,2.909 1.367,0.038 1.611,-0.904 1.611,-0.904 z" /><path
           inkscape:connector-curvature="0"
           id="path168"
           d="m 58.992,35.319 c 0.007,0.06 0.014,0.119 0.021,0.179 2.762,1.308 4.713,2.897 6.066,4.489 0.357,-0.441 0.768,-0.896 1.242,-1.352 0.011,-0.134 0.02,-0.277 0.025,-0.429 -1.1,-0.306 -1.848,-0.947 -1.848,-0.947 0,0 0,0 0.004,-0.745 0.002,-0.45 0.209,-1.167 0.372,-1.667 -1.296,-1.123 -2.908,-2.197 -4.905,-3.137 0.072,0.29 0.121,0.584 0.121,0.886 0.002,0.984 -0.399,1.908 -1.098,2.723 z" /><path
           inkscape:connector-curvature="0"
           id="path170"
           d="m 66.322,38.635 c -0.477,0.456 -0.885,0.911 -1.242,1.352 0.011,0.013 0.02,0.025 0.029,0.038 0.33,-0.015 0.654,-0.029 1.02,-0.059 0,0 0.126,-0.492 0.193,-1.331 z" /><path
           inkscape:connector-curvature="0"
           id="path172"
           d="m 69.289,64.443 c 0.121,-0.309 0.236,-0.629 0.345,-0.957 -0.297,0.219 -0.591,0.424 -0.88,0.604 0.178,0.113 0.355,0.228 0.535,0.353 z" /><path
           inkscape:connector-curvature="0"
           id="path174"
           d="m 67.742,64.668 c -0.419,1.122 -0.225,2.152 0.101,2.938 0.013,-0.051 0.028,-0.105 0.038,-0.155 0,0 0.753,-1.327 1.408,-3.007 -0.18,-0.125 -0.357,-0.24 -0.535,-0.353 -0.348,0.22 -0.686,0.407 -1.012,0.577 z" /><path
           inkscape:connector-curvature="0"
           id="path176"
           d="m 68.305,63.63 c -0.033,0.047 -0.056,0.093 -0.087,0.14 0.177,0.102 0.355,0.207 0.536,0.322 0.289,-0.182 0.583,-0.387 0.88,-0.604 0.035,-0.106 0.069,-0.213 0.103,-0.319 -0.76,0.513 -1.432,0.461 -1.432,0.461 z" /><path
           inkscape:connector-curvature="0"
           id="path178"
           d="m 68.218,63.77 c -0.204,0.304 -0.364,0.604 -0.476,0.898 0.326,-0.17 0.664,-0.357 1.012,-0.576 -0.181,-0.115 -0.359,-0.222 -0.536,-0.322 z" /><path
           inkscape:connector-curvature="0"
           id="path180"
           d="m 66.35,38.207 c 0.113,0.032 0.229,0.06 0.352,0.083 0.242,-0.217 0.497,-0.433 0.77,-0.645 -0.347,-0.472 -0.738,-0.949 -1.178,-1.424 0.073,0.758 0.08,1.427 0.056,1.986 z" /><path
           inkscape:connector-curvature="0"
           id="path182"
           d="m 67.949,38.337 c -0.15,-0.229 -0.309,-0.46 -0.479,-0.693 -0.272,0.212 -0.527,0.428 -0.771,0.645 0.389,0.075 0.808,0.106 1.25,0.048 z" /><path
           inkscape:connector-curvature="0"
           id="path184"
           d="m 64.5,37.259 c 0,0 0.748,0.641 1.85,0.947 0.024,-0.558 0.019,-1.228 -0.058,-1.986 -0.425,-0.461 -0.894,-0.921 -1.416,-1.373 -0.163,0.5 -0.37,1.217 -0.372,1.667 C 64.5,37.259 64.5,37.259 64.5,37.259 Z" /><path
           inkscape:connector-curvature="0"
           id="path186"
           d="m 50,34.375 0,0 c 3.188,-0.188 8.375,0.812 8.375,0.812 0.184,0.08 0.34,0.169 0.518,0.251 0.034,-0.039 0.065,-0.08 0.101,-0.12 -0.138,-1.111 -0.326,-2.192 -0.326,-2.192 -0.028,-0.655 -0.44,-1.365 -0.949,-2 -1.958,-0.313 -5.337,-0.769 -7.717,-0.629 l 0,0.065 -0.002,3.813 0,0 z" /><path
           inkscape:connector-curvature="0"
           id="path188"
           d="m 58.992,35.319 c 0.699,-0.815 1.1,-1.739 1.1,-2.722 0,-0.302 -0.049,-0.596 -0.121,-0.886 -0.225,-0.106 -0.447,-0.212 -0.684,-0.314 0,0 -0.62,-0.119 -1.57,-0.271 0.508,0.635 0.92,1.346 0.949,2 0,0 0.189,1.082 0.326,2.193 z" /></g></g><path
       style="fill:#ca1919;fill-opacity:1"
       d="m -810.6785,-562.38659 c 0,0 3.02334,-2.25897 6.95042,-2.62752 0,0 2.50684,-0.12508 4.99084,0.18316 0,0 2.68647,-0.20897 4.23259,-0.27287 0,0 -0.81446,1.50008 -1.9176,3.04637 0,0 -0.014,1.06906 -10.95499,2.52128 0,0 -1.87942,0.38604 -2.72837,0.54279 -0.84894,0.15675 -0.57289,-3.39321 -0.57289,-3.39321 z"
       id="path192"
       inkscape:connector-curvature="0" /><path
       style="fill:#ca1919;fill-opacity:1"
       d="m -810.53549,-562.41063 c 0,0 -3.59586,-1.14598 -7.42525,-0.21032 0,0 -2.40989,0.70165 -4.65649,1.80533 0,0 -2.60707,0.68112 -4.08908,1.12638 0,0 1.26028,1.15123 2.80846,2.25171 0,0 0.36284,1.00569 11.17713,-1.20016 0,0 1.90232,-0.24984 2.75585,-0.37935 0.85314,-0.13179 -0.57062,-3.39359 -0.57062,-3.39359 z"
       id="path194"
       inkscape:connector-curvature="0" /><path
       style="fill:#ca1919;fill-opacity:1"
       d="m -796.6769,-561.2537 c 0,0 -8.24223,2.17717 -13.19064,2.8155 l 1.51872,9.03217 c 0,0 4.51592,-0.61462 6.77522,-3.66943 0,0 3.48865,-4.98879 4.8967,-8.17824 z"
       id="path196"
       inkscape:connector-curvature="0" /><path
       style="fill:#ca1919;fill-opacity:1"
       d="m -823.06519,-556.81661 c 0,0 8.501,-0.63814 13.38606,-1.65327 l 1.51872,9.03217 c 0,0 -4.46859,0.89609 -7.60044,-1.25222 0,0 -4.93064,-3.57312 -7.30434,-6.12668 z"
       id="path198"
       inkscape:connector-curvature="0" /><path
       d="m -805.33174,-578.89635 c 0,0 -5.36807,11.1635 -15.88973,2.6718 0,0 9.5144,5.40261 15.88973,-2.6718 z"
       id="path200"
       inkscape:connector-curvature="0" /><path
       d="m -826.59673,-608.19241 c 0,0 -0.62414,1.49376 -3.26421,0.54886 0,0 -7.34285,-2.12182 -11.01808,-2.67091 0,0 -4.2786,-0.66705 -7.81094,1.31338 0,0 -3.20222,2.06963 -6.89779,5.53634 0,0 -0.94518,0.59775 -0.14313,-0.85123 0,0 4.06021,-5.93452 9.24743,-7.60968 0,0 3.23915,-1.12818 12.75922,-0.46716 0,0 4.35298,0.29041 5.45082,0.32289 0.002,-3.8e-4 1.95412,0.76613 1.67668,3.87751 z"
       id="path208"
       inkscape:connector-curvature="0" /><path
       d="m -811.35622,-610.75504 c 0,0 1.07834,1.20749 3.26421,-0.54886 0,0 6.24512,-4.40659 9.53867,-6.12746 0,0 3.82062,-2.0289 7.8064,-1.31261 0,0 3.70299,0.90855 8.3291,2.976 0,0 1.08416,0.25652 -0.14313,-0.85123 0,0 -5.77779,-4.2803 -11.22988,-4.1665 0,0 -3.43,-0.007 -12.21035,3.73137 0,0 -4.01863,1.69807 -5.04548,2.0878 0.007,-10e-4 -1.58475,1.36118 -0.30954,4.21149 z"
       id="path210"
       inkscape:connector-curvature="0" /><g
       transform="matrix(1.25,0,0,-1.25,-1779.4195,-203.16158)"
       id="g4563"><g
         clip-path="url(#clipPath4567)"
         id="g4565"><g
           transform="translate(740.3086,387.0098)"
           id="g4571"><path
             inkscape:connector-curvature="0"
             id="path4573"
             style="fill:#f1c9a5;fill-opacity:1;fill-rule:nonzero;stroke:none"
             d="m 0,0 c 0,0 11.507,-0.41 21.489,3.783 9.983,4.192 23.651,8.014 21.389,22.578 -1.391,8.955 -22.921,4.354 -22.921,4.354 0,0 -15.763,-5.819 -26.229,-5.227" /></g><g
           transform="translate(740.3086,385.5098)"
           id="g4575"><path
             inkscape:connector-curvature="0"
             id="path4577"
             style="fill:#040606;fill-opacity:1;fill-rule:nonzero;stroke:none"
             d="m 0,0 c 11.194,-0.319 21.678,3.307 31.696,7.961 4.585,2.129 8.774,5.082 11.26,9.573 1.95,3.521 2.846,10.012 0.207,13.404 -4.627,5.948 -15.523,4.092 -21.917,3.038 -9.364,-1.545 -17.688,-5.812 -27.518,-5.488 -1.936,0.064 -1.93,-2.936 0,-3 14.632,-0.483 28.062,8.833 42.766,5.917 6.05,-1.2 6.041,-7.563 3.871,-12.357 C 38.331,14.552 33.372,12.033 29.133,10.063 19.953,5.799 10.229,2.708 0,3 -1.936,3.056 -1.931,0.055 0,0" /></g><g
           transform="translate(636.2334,581.5347)"
           id="g4579"><path
             inkscape:connector-curvature="0"
             id="path4581"
             style="fill:#a9dacb;fill-opacity:1;fill-rule:nonzero;stroke:none"
             d="m 0,0 c 0,0 0.25,26.25 14.25,26 14,-0.25 8.25,-30.5 8.25,-30.5" /></g><g
           transform="translate(637.7334,581.5347)"
           id="g4583"><path
             inkscape:connector-curvature="0"
             id="path4585"
             style="fill:#040606;fill-opacity:1;fill-rule:nonzero;stroke:none"
             d="M 0,0 C 0.109,8.048 2.706,27.261 14.663,24.198 23.697,21.883 20.776,2.439 19.554,-4.101 19.2,-5.992 22.091,-6.799 22.446,-4.899 24.132,4.118 26.798,24.186 14.735,27.276 0.778,30.852 -2.873,9.36 -3,0 -3.026,-1.936 -0.026,-1.933 0,0" /></g><g
           transform="translate(642.4307,217.6982)"
           id="g4587"><path
             inkscape:connector-curvature="0"
             id="path4589"
             style="fill:#f1c9a5;fill-opacity:1;fill-rule:nonzero;stroke:none"
             d="M 0,0 C 0,0 19.75,-34.123 30.371,-27.438 40.993,-20.752 16.677,8.043 16.677,8.043" /></g><g
           transform="translate(641.1357,216.9414)"
           id="g4591"><path
             inkscape:connector-curvature="0"
             id="path4593"
             style="fill:#040606;fill-opacity:1;fill-rule:nonzero;stroke:none"
             d="m 0,0 c 3.529,-6.072 7.606,-11.876 12.067,-17.296 4.323,-5.251 12.047,-14.278 19.818,-10.98 7.744,3.287 2.416,14.752 -0.111,19.614 C 28.34,-2.055 23.823,4.165 19.032,9.86 17.785,11.343 15.675,9.209 16.911,7.739 20.755,3.17 40.995,-22.507 29.609,-25.94 22.943,-27.95 14.604,-15.867 11.366,-11.611 8.187,-7.433 5.229,-3.027 2.59,1.514 1.619,3.186 -0.975,1.676 0,0" /></g><g
           transform="translate(471.2334,282.2852)"
           id="g4595"><path
             inkscape:connector-curvature="0"
             id="path4597"
             style="fill:#a9dacb;fill-opacity:1;fill-rule:nonzero;stroke:none"
             d="m 0,0 c -13.25,1.5 -13.25,3.25 -20,1.5 -6.75,-1.75 -25,-13 -18,-18.25 7,-5.25 7.75,-7 17,-5.5 9.25,1.5 28.5,5.75 28.5,5.75" /></g><g
           transform="translate(471.2334,283.7852)"
           id="g4599"><path
             inkscape:connector-curvature="0"
             id="path4601"
             style="fill:#040606;fill-opacity:1;fill-rule:nonzero;stroke:none"
             d="m 0,0 c -8.839,1.056 -16.012,3.633 -24.489,-0.101 -5.379,-2.369 -17.404,-8.626 -16.509,-16.003 0.433,-3.566 5.612,-6.176 8.257,-7.884 3.943,-2.545 8.737,-1.774 13.097,-1.049 9.235,1.532 18.403,3.576 27.543,5.591 1.889,0.416 1.087,3.308 -0.798,2.892 -6.076,-1.339 -12.164,-2.622 -18.265,-3.846 -4.693,-0.943 -9.457,-2.021 -14.24,-2.349 -4.784,-0.329 -8.702,3.098 -12.103,6.053 -4.713,4.094 13.849,13.815 16.56,14.83 C -14.272,0.633 -6.766,-2.191 0,-3 1.918,-3.229 1.896,-0.227 0,0" /></g><g
           transform="translate(792.3389,500.877)"
           id="g4603"><path
             inkscape:connector-curvature="0"
             id="path4605"
             style="fill:#ffffff;fill-opacity:1;fill-rule:nonzero;stroke:none"
             d="m 0,0 c 0,-23.748 -20.283,-43 -45.303,-43 -25.019,0 -45.302,19.252 -45.302,43 0,23.748 20.283,43 45.302,43 C -20.283,43 0,23.748 0,0" /></g><g
           transform="translate(790.8389,500.877)"
           id="g4607"><path
             inkscape:connector-curvature="0"
             id="path4609"
             style="fill:#040606;fill-opacity:1;fill-rule:nonzero;stroke:none"
             d="M 0,0 C -0.391,-23.821 -20.633,-41.158 -43.803,-41.5 -66.976,-41.842 -87.223,-23.31 -87.605,0 -87.996,23.821 -66.38,41.167 -43.803,41.5 -20.63,41.842 -0.383,23.31 0,0 0.031,-1.933 3.032,-1.936 3,0 2.647,21.477 -12.946,38.792 -33.596,43.436 -54.46,48.127 -76.709,37.734 -86.293,18.672 c -9.5,-18.894 -2.534,-41.22 13.698,-53.747 16.85,-13.002 42.528,-12.397 58.927,1.036 C -3.303,-25.548 2.779,-13.431 3,0 3.032,1.936 0.031,1.933 0,0" /></g><g
           transform="translate(792.3389,501.3604)"
           id="g4611"><path
             inkscape:connector-curvature="0"
             id="path4613"
             style="fill:#040606;fill-opacity:1;fill-rule:nonzero;stroke:none"
             d="m 0,0 c 0,-6.262 -5.223,-11.338 -11.666,-11.338 -6.443,0 -11.666,5.076 -11.666,11.338 0,6.262 5.223,11.338 11.666,11.338 C -5.223,11.338 0,6.262 0,0" /></g><g
           transform="translate(792.3389,501.3604)"
           id="g4615"><path
             inkscape:connector-curvature="0"
             id="path4617"
             style="fill:none;stroke:#231f20;stroke-width:1;stroke-linecap:butt;stroke-linejoin:miter;stroke-miterlimit:10;stroke-dasharray:none;stroke-opacity:1"
             d="m 0,0 c 0,-6.262 -5.223,-11.338 -11.666,-11.338 -6.443,0 -11.666,5.076 -11.666,11.338 0,6.262 5.223,11.338 11.666,11.338 C -5.223,11.338 0,6.262 0,0 Z" /></g><g
           transform="translate(783.5029,502.2109)"
           id="g4619"><path
             inkscape:connector-curvature="0"
             id="path4621"
             style="fill:#ffffff;fill-opacity:1;fill-rule:nonzero;stroke:none"
             d="m 0,0 c 0,-2.039 -1.658,-3.691 -3.705,-3.691 -2.047,0 -3.707,1.652 -3.707,3.691 0,2.038 1.66,3.691 3.707,3.691 C -1.658,3.691 0,2.038 0,0" /></g><g
           transform="translate(783.5029,502.2109)"
           id="g4623"><path
             inkscape:connector-curvature="0"
             id="path4625"
             style="fill:none;stroke:#231f20;stroke-width:1;stroke-linecap:butt;stroke-linejoin:miter;stroke-miterlimit:10;stroke-dasharray:none;stroke-opacity:1"
             d="m 0,0 c 0,-2.039 -1.658,-3.691 -3.705,-3.691 -2.047,0 -3.707,1.652 -3.707,3.691 0,2.038 1.66,3.691 3.707,3.691 C -1.658,3.691 0,2.038 0,0 Z" /></g><g
           transform="translate(483.5967,494.5347)"
           id="g4627"><path
             inkscape:connector-curvature="0"
             id="path4629"
             style="fill:#a9dacb;fill-opacity:1;fill-rule:nonzero;stroke:none"
             d="m 0,0 c 0.909,13.007 22,58 58,74 36,16 50,16 85,19 35,3 88,-28 98,-41 C 251,39 258,27.203 260,9.602 262,-8 262,-16 265,-34 c 3,-18 -1,-87 -12,-113 -7.273,-17.191 -18.481,-59.741 -42.876,-92.958 C 197.625,-256.977 181.665,-271.546 161,-279 c -61,-22 -97.007,-9.358 -106,-9 -25.896,1.032 -31.273,8.471 -61,44 -17.988,21.5 -20.863,47.24 -20.863,65.25 0,21.875 30,73.75 31,103.75 C 5.915,-21.646 -2.47,-35.333 0,0" /></g><g
           transform="translate(485.0967,494.5347)"
           id="g4631"><path
             inkscape:connector-curvature="0"
             id="path4633"
             style="fill:#040606;fill-opacity:1;fill-rule:nonzero;stroke:none"
             d="m 0,0 c 0.554,6.49 3.569,12.977 6.315,18.772 4.347,9.174 9.878,17.821 16.185,25.764 7.116,8.963 15.551,16.904 25.208,23.067 11.1,7.083 24.286,11.676 36.812,15.543 10.639,3.286 21.59,5.08 32.645,6.234 11.484,1.199 23.398,2.933 34.946,2.083 22.343,-1.644 44.478,-11.832 63.522,-23.064 7.174,-4.232 14.353,-8.908 20.35,-14.732 7.848,-7.624 14.003,-18.798 17.641,-29.007 4.459,-12.512 4.448,-26.386 5.778,-39.484 0.952,-9.368 2.954,-18.618 3.39,-28.028 0.897,-19.392 -0.691,-39.077 -2.952,-58.323 -1.218,-10.367 -2.841,-20.715 -5.245,-30.877 -1.794,-7.582 -4.707,-14.604 -7.387,-21.884 -17.021,-46.268 -35.461,-101.959 -85.116,-122.476 -23.397,-9.668 -49.801,-14.534 -75.095,-13.972 -7.486,0.167 -14.941,0.954 -22.329,2.155 -4.076,0.663 -8.13,1.596 -12.266,1.777 -7.768,0.342 -15.399,1.591 -22.243,5.449 -7.67,4.323 -13.743,11.33 -19.495,17.845 -9.356,10.598 -19.419,21.365 -26.254,33.797 -6.259,11.383 -9.402,24.306 -10.673,37.155 -0.893,9.024 -0.79,17.486 1.573,26.255 2.684,9.962 6.614,19.601 10.371,29.193 7.584,19.362 17.076,39.714 18.412,60.751 0.933,14.696 0.733,30.022 -2.108,44.525 C -0.1,-20.842 -0.732,-10.881 0,0 c 0.13,1.932 -2.871,1.919 -3,0 -0.492,-7.303 -0.777,-14.658 0.172,-21.937 0.617,-4.728 1.807,-9.356 2.597,-14.055 3.285,-19.54 2.865,-40.991 -2.534,-60.046 -6.08,-21.454 -15.919,-41.611 -22.894,-62.759 -6.072,-18.411 -4.82,-37.458 0.757,-55.951 3.779,-12.534 10.491,-23.313 18.831,-33.29 7.63,-9.126 15.108,-18.504 23.615,-26.841 5.045,-4.946 10.69,-9.116 17.339,-11.608 6.441,-2.415 13.124,-2.39 19.853,-3.115 12.756,-1.373 24.943,-3.901 37.898,-3.828 24.827,0.141 50.791,5.632 73.538,15.515 46.587,20.243 66.409,73.962 82.161,118.271 2.579,7.254 5.728,14.317 7.84,21.725 2.668,9.353 4.26,19.023 5.619,28.639 2.807,19.851 4.316,40.04 4.16,60.093 -0.059,7.746 -0.995,15.096 -2.122,22.745 -1.864,12.654 -2.254,25.478 -4.093,38.128 -2.813,19.36 -13.248,38.319 -28.902,50.225 -16.349,12.435 -35.841,21.731 -55.394,27.823 -9.839,3.066 -20.163,5.099 -30.5,4.952 C 133.159,94.519 121.036,92.983 109.35,91.473 95.016,89.622 81.301,85.721 67.871,80.423 53.24,74.651 40.412,67.59 29.161,56.48 19.649,47.089 11.838,35.887 5.625,24.085 1.77,16.763 -2.286,8.373 -3,0 -3.165,-1.929 -0.163,-1.913 0,0" /></g><g
           transform="translate(513.2334,218.0352)"
           id="g4635"><path
             inkscape:connector-curvature="0"
             id="path4637"
             style="fill:#f1c9a5;fill-opacity:1;fill-rule:nonzero;stroke:none"
             d="M 0,0 C 0,0 -10.5,-31.75 5.5,-33.5 21.5,-35.25 23,-4.25 23,-4.25" /></g><g
           transform="translate(511.7871,218.4336)"
           id="g4639"><path
             inkscape:connector-curvature="0"
             id="path4641"
             style="fill:#040606;fill-opacity:1;fill-rule:nonzero;stroke:none"
             d="m 0,0 c -3.175,-9.697 -8.658,-33.092 6.547,-35.345 14.919,-2.21 18.851,20.091 19.399,30.697 0.1,1.934 -2.9,1.924 -3,0 C 22.472,-13.827 19.385,-34.236 6.483,-32.324 -5.52,-30.546 0.517,-8.054 2.893,-0.797 3.497,1.047 0.599,1.83 0,0" /></g><g
           transform="translate(510.0459,222.375)"
           id="g4643"><path
             inkscape:connector-curvature="0"
             id="path4645"
             style="fill:#a9dacb;fill-opacity:1;fill-rule:nonzero;stroke:none"
             d="m 0,0 c 0,0 2.362,-11.875 7.241,-15.042 0,0 0.88,8.5 1.713,8.833 0.834,0.333 12.167,-8.999 10.5,-10.333 -1.666,-1.334 9.688,5.904 9.677,9.202" /></g><g
           transform="translate(508.5996,221.9766)"
           id="g4647"><path
             inkscape:connector-curvature="0"
             id="path4649"
             style="fill:#040606;fill-opacity:1;fill-rule:nonzero;stroke:none"
             d="m 0,0 c 1.155,-5.636 3.161,-12.342 7.931,-15.938 1.009,-0.762 2.152,0.308 2.257,1.294 0.155,1.469 0.348,2.933 0.566,4.393 0.137,0.912 0.317,1.813 0.52,2.711 0.219,0.975 -1.292,0.458 0.16,-0.537 1.249,-0.857 8.099,-7.276 8.254,-7.14 -0.371,-0.324 -0.558,-0.992 -0.386,-1.459 0.003,-0.009 0.006,-0.016 0.009,-0.025 0.351,-0.952 1.283,-1.345 2.204,-0.897 3.521,1.714 9.897,6.1 10.509,10.258 0.279,1.892 -2.612,2.705 -2.893,0.797 -0.485,-3.291 -6.317,-7.095 -9.131,-8.464 0.735,-0.299 1.469,-0.597 2.204,-0.896 0.304,-0.826 -0.598,-1.88 0.137,-0.78 0.209,0.313 0.203,0.699 0.215,1.057 0.034,1.053 -0.898,2.17 -1.528,2.906 -2.35,2.747 -5.161,5.112 -8.08,7.233 -5.482,3.985 -5.395,-5.705 -5.76,-9.157 0.752,0.432 1.504,0.864 2.256,1.295 C 5.419,-10.313 3.864,-3.938 2.893,0.797 2.504,2.691 -0.387,1.888 0,0" /></g><g
           transform="translate(639.667,234.5527)"
           id="g4651"><path
             inkscape:connector-curvature="0"
             id="path4653"
             style="fill:#c4ebe6;fill-opacity:1;fill-rule:nonzero;stroke:none"
             d="m 0,0 c -20.667,11.114 -21.145,27.75 -5,48.447 11.865,15.212 25.333,30.333 32.732,74 3.933,23.208 26.819,50.574 48.043,48.953 C 97,169.78 106.981,147.237 99.206,125.646 91.43,104.056 63.099,21.169 42.716,10.475 42.716,10.475 18.798,-10.109 0,0" /></g><g
           transform="translate(689.3389,490.5347)"
           id="g4655"><path
             inkscape:connector-curvature="0"
             id="path4657"
             style="fill:#ffffff;fill-opacity:1;fill-rule:nonzero;stroke:none"
             d="m 0,0 c 0,-28.167 -24.387,-51 -54.469,-51 -30.083,0 -54.47,22.833 -54.47,51 0,28.167 24.387,51 54.47,51 C -24.387,51 0,28.167 0,0" /></g><g
           transform="translate(687.8389,490.5347)"
           id="g4659"><path
             inkscape:connector-curvature="0"
             id="path4661"
             style="fill:#231f20;fill-opacity:1;fill-rule:nonzero;stroke:none"
             d="m 0,0 c -0.349,-24.958 -19.498,-44.272 -43.423,-48.705 -24.459,-4.532 -50.443,8.91 -59.525,32.251 -9.017,23.172 2.986,48.186 24.029,59.618 21.985,11.944 50.469,6.53 67.027,-11.906 C -4.2,22.695 -0.159,11.431 0,0 0.027,-1.933 3.027,-1.936 3,0 2.7,21.468 -10.841,39.745 -30.382,48.034 c -19.994,8.482 -43.604,4.573 -60.209,-9.169 -16.349,-13.53 -22.376,-36.242 -15.25,-56.116 7.157,-19.962 26.591,-32.699 47.126,-34.968 C -27.526,-55.666 2.554,-31.96 3,0 3.027,1.936 0.027,1.933 0,0" /></g><g
           transform="translate(668.3994,497.8682)"
           id="g4663"><path
             inkscape:connector-curvature="0"
             id="path4665"
             style="fill:#040606;fill-opacity:1;fill-rule:nonzero;stroke:none"
             d="m 0,0 c 0,-8.836 -7.909,-16 -17.666,-16 -9.757,0 -17.666,7.164 -17.666,16 0,8.836 7.909,16 17.666,16 C -7.909,16 0,8.836 0,0" /></g><g
           transform="translate(668.3994,497.8682)"
           id="g4667"><path
             inkscape:connector-curvature="0"
             id="path4669"
             style="fill:none;stroke:#231f20;stroke-width:1;stroke-linecap:butt;stroke-linejoin:miter;stroke-miterlimit:10;stroke-dasharray:none;stroke-opacity:1"
             d="m 0,0 c 0,-8.836 -7.909,-16 -17.666,-16 -9.757,0 -17.666,7.164 -17.666,16 0,8.836 7.909,16 17.666,16 C -7.909,16 0,8.836 0,0 Z" /></g><g
           transform="translate(650.7334,502.5161)"
           id="g4671"><path
             inkscape:connector-curvature="0"
             id="path4673"
             style="fill:#ffffff;fill-opacity:1;fill-rule:nonzero;stroke:none"
             d="m 0,0 c 0,-2.567 -2.09,-4.648 -4.667,-4.648 -2.577,0 -4.667,2.081 -4.667,4.648 0,2.567 2.09,4.648 4.667,4.648 C -2.09,4.648 0,2.567 0,0" /></g><g
           transform="translate(650.7334,502.5161)"
           id="g4675"><path
             inkscape:connector-curvature="0"
             id="path4677"
             style="fill:none;stroke:#231f20;stroke-width:1;stroke-linecap:butt;stroke-linejoin:miter;stroke-miterlimit:10;stroke-dasharray:none;stroke-opacity:1"
             d="m 0,0 c 0,-2.567 -2.09,-4.648 -4.667,-4.648 -2.577,0 -4.667,2.081 -4.667,4.648 0,2.567 2.09,4.648 4.667,4.648 C -2.09,4.648 0,2.567 0,0 Z" /></g><g
           transform="translate(527.7334,540.5347)"
           id="g4679"><path
             inkscape:connector-curvature="0"
             id="path4681"
             style="fill:#a9dacb;fill-opacity:1;fill-rule:nonzero;stroke:none"
             d="m 0,0 -19.667,25 c 0,0 -9.833,15.906 5.5,22.203 C 1.167,53.5 11.667,41.333 12.5,40.167 13.333,39 25.667,20.333 25.667,20.333" /></g><g
           transform="translate(528.7939,541.5952)"
           id="g4683"><path
             inkscape:connector-curvature="0"
             id="path4685"
             style="fill:#040606;fill-opacity:1;fill-rule:nonzero;stroke:none"
             d="m 0,0 c -5.035,6.401 -10.07,12.801 -15.105,19.202 -4.102,5.214 -8.241,9.813 -7.045,17.405 1.354,8.596 13.062,10.772 20.067,9.323 4.47,-0.925 9.431,-3.892 12.227,-7.581 C 14.911,32.06 18.96,25.1 23.311,18.516 24.373,16.91 26.972,18.411 25.902,20.03 21.328,26.952 17.246,35 11.663,41.15 c -3.969,4.371 -9.541,7.241 -15.348,8.096 -6.518,0.961 -15.653,-1.349 -19.413,-7.235 -4.272,-6.688 -1.815,-15.16 2.767,-20.984 6.07,-7.716 12.14,-15.432 18.21,-23.148 C -0.926,-3.641 1.182,-1.502 0,0" /></g><g
           transform="translate(525.2334,572.3682)"
           id="g4687"><path
             inkscape:connector-curvature="0"
             id="path4689"
             style="fill:#060809;fill-opacity:1;fill-rule:nonzero;stroke:none"
             d="m 0,0 c 0,0 -0.104,-9 3.948,-13 4.052,-4 7.719,-6.833 9.719,-5.333 2,1.5 -3.5,12.5 -5.834,13.833 C 5.5,-3.167 4,0.5 0,0" /></g><g
           transform="translate(523.7334,572.3682)"
           id="g4691"><path
             inkscape:connector-curvature="0"
             id="path4693"
             style="fill:#231f20;fill-opacity:1;fill-rule:nonzero;stroke:none"
             d="m 0,0 c -0.019,-4.495 0.861,-9.5 3.602,-13.153 1.339,-1.785 10.627,-10.975 13.058,-5.723 1.721,3.716 -1.787,9.276 -3.666,12.328 -1.186,1.927 -2.651,2.934 -4.246,4.444 -2.217,2.1 -4.019,3.747 -7.248,3.604 -1.927,-0.085 -1.935,-3.085 0,-3 2.773,0.123 6.465,-3.225 8.16,-5.462 1.95,-2.575 3.423,-5.76 4.253,-8.867 0.843,-3.154 -3.75,0.578 -4.458,1.158 -2.214,1.816 -4.081,3.699 -5.116,6.396 C 3.351,-5.695 2.988,-2.754 3,0 3.008,1.935 0.008,1.934 0,0" /></g><g
           transform="translate(748.3105,493.0518)"
           id="g4695"><path
             inkscape:connector-curvature="0"
             id="path4697"
             style="fill:#8b806f;fill-opacity:1;fill-rule:nonzero;stroke:none"
             d="m 0,0 c 0,-7.281 -8.208,-13.184 -18.333,-13.184 -10.125,0 -18.334,5.903 -18.334,13.184 0,7.281 8.209,13.184 18.334,13.184 C -8.208,13.184 0,7.281 0,0" /></g><g
           transform="translate(746.8105,493.0518)"
           id="g4699"><path
             inkscape:connector-curvature="0"
             id="path4701"
             style="fill:#040606;fill-opacity:1;fill-rule:nonzero;stroke:none"
             d="m 0,0 c -0.933,-15.759 -32.734,-15.759 -33.667,0 -0.49,8.28 10.556,11.492 16.834,11.684 C -9.797,11.899 -0.474,8.007 0,0 0.113,-1.922 3.114,-1.934 3,0 1.837,19.66 -35.504,19.66 -36.667,0 -37.261,-10.034 -24.741,-14.441 -16.833,-14.684 -7.987,-14.954 2.427,-9.692 3,0 3.114,1.934 0.113,1.922 0,0" /></g><g
           transform="translate(716.5107,461.9648)"
           id="g4703"><path
             inkscape:connector-curvature="0"
             id="path4705"
             style="fill:#ffffff;fill-opacity:1;fill-rule:nonzero;stroke:none"
             d="m 0,0 0,-24.75 c 0,0 -1.379,-3.441 8.27,-3.934 9.649,-0.492 10.751,0 10.751,0 0,0 4.961,-1.638 6.891,6.393 1.931,8.031 6.894,23.111 6.894,23.111 L 0,0 Z" /></g><g
           transform="translate(715.0107,461.9648)"
           id="g4707"><path
             inkscape:connector-curvature="0"
             id="path4709"
             style="fill:#040606;fill-opacity:1;fill-rule:nonzero;stroke:none"
             d="m 0,0 0,-21.921 c 0,-2.042 -0.415,-2.675 0.126,-4.343 1.145,-3.528 6.747,-3.704 9.644,-3.92 3.369,-0.251 7.774,-0.89 11.133,0.048 -1.569,-0.438 0.926,-0.181 1.489,-0.111 1.657,0.21 2.929,1.123 4.042,2.319 3.466,3.724 4.035,11.35 5.454,16.08 1.232,4.107 2.526,8.196 3.864,12.269 C 36.054,1.339 35.249,2.344 34.306,2.32 23.37,2.047 12.436,1.773 1.5,1.5 c -1.931,-0.048 -1.936,-3.048 0,-3 10.936,0.273 21.87,0.547 32.806,0.82 -0.483,0.633 -0.964,1.266 -1.447,1.899 -2.505,-7.631 -4.967,-15.311 -6.893,-23.111 -0.574,-2.327 -1.715,-5.378 -4.537,-5.427 -0.456,-0.008 -0.858,0.244 -1.324,0.076 -2.368,-0.858 -6.104,-0.12 -8.517,-0.027 C 9.414,-27.185 3,-27.322 3,-24.7 L 3,-18.042 3,0 C 3,1.935 0,1.935 0,0" /></g><g
           transform="translate(728.834,483.377)"
           id="g4711"><path
             inkscape:connector-curvature="0"
             id="path4713"
             style="fill:#f1c9a5;fill-opacity:1;fill-rule:nonzero;stroke:none"
             d="m 0,0 c 0,0 -8.404,3.956 -17.07,1.79 -8.668,-2.167 -18.834,-11.166 -18,-19.833 0.832,-8.668 9.666,-14.501 15,-14.668 2.012,-0.062 6.723,-1.832 17.736,-1.832 9.853,0 11.501,0.932 17.334,1.166 7.469,0.301 12.762,6 12.596,16.5 -0.166,10.5 -7.334,15.834 -15,15.334 C 4.93,-2.043 0,0 0,0" /></g><g
           transform="translate(729.5908,484.6724)"
           id="g4715"><path
             inkscape:connector-curvature="0"
             id="path4717"
             style="fill:#040606;fill-opacity:1;fill-rule:nonzero;stroke:none"
             d="m 0,0 c -13.778,6.253 -34.188,-0.124 -37.224,-16.461 -1.328,-7.154 4.143,-13.726 9.902,-17.077 4.753,-2.765 12.1,-3.084 17.458,-3.552 8.465,-0.739 16.797,0.351 25.211,1.003 7.191,0.558 11.424,6.52 12.656,13.117 1.359,7.284 -0.732,14.885 -6.863,19.269 -6.209,4.439 -14.638,1.153 -21.498,3.852 -1.802,0.709 -2.577,-2.193 -0.797,-2.893 4.469,-1.759 9.43,-1.695 14.139,-1.566 8.615,0.236 12.414,-7.996 12.339,-15.403 -0.078,-7.66 -4.494,-13.132 -12.194,-13.517 -6.072,-0.304 -11.983,-1.15 -18.099,-1.093 -10.49,0.099 -24.871,1.163 -28.895,12.741 -2.836,8.16 5.477,15.417 11.765,18.847 6.168,3.365 14.273,3.008 20.586,0.142 C 0.233,-3.384 1.76,-0.799 0,0" /></g><g
           transform="translate(573.2549,358.0342)"
           id="g4719"><path
             inkscape:connector-curvature="0"
             id="path4721"
             style="fill:#f1c9a5;fill-opacity:1;fill-rule:nonzero;stroke:none"
             d="m 0,0 c 0,0 -1.948,-10.389 0,-20.129 1.948,-9.739 7.792,-24.023 19.479,-21.427 11.688,2.598 5.194,19.804 5.194,19.804 0,0 -3.571,13.96 -1.623,23.375" /></g><g
           transform="translate(571.8086,358.4326)"
           id="g4723"><path
             inkscape:connector-curvature="0"
             id="path4725"
             style="fill:#040606;fill-opacity:1;fill-rule:nonzero;stroke:none"
             d="m 0,0 c -1.801,-10.016 -1.204,-20.82 2.82,-30.246 3.322,-7.779 11.25,-17.347 20.847,-12.353 6.744,3.51 6.314,11.721 4.731,18.119 -2.049,8.277 -3.977,16.722 -2.455,25.306 0.335,1.891 -2.555,2.7 -2.893,0.797 -1.376,-7.759 -0.29,-15.816 1.447,-23.44 1.011,-4.439 2.531,-8.507 1.592,-13.173 -0.989,-4.914 -6.067,-6.433 -10.478,-5.416 -4.861,1.121 -7.797,6.413 -9.719,10.548 C 1.77,-20.995 1.181,-10.319 2.893,-0.797 3.233,1.094 0.342,1.902 0,0" /></g><g
           transform="translate(565.8335,362.583)"
           id="g4727"><path
             inkscape:connector-curvature="0"
             id="path4729"
             style="fill:#a9dacb;fill-opacity:1;fill-rule:nonzero;stroke:none"
             d="m 0,0 c 5.894,-8.667 20.225,-9.583 20.225,-9.583 0,0 -2.334,3.582 0,7.249 0,0 2.108,-4.416 6.442,-6.416 L 34.333,0" /></g><g
           transform="translate(564.5381,361.8262)"
           id="g4731"><path
             inkscape:connector-curvature="0"
             id="path4733"
             style="fill:#040606;fill-opacity:1;fill-rule:nonzero;stroke:none"
             d="m 0,0 c 4.929,-6.648 13.456,-9.75 21.52,-10.326 1.158,-0.083 1.839,1.329 1.295,2.257 -1.046,1.786 -1.012,3.591 0,5.735 l -2.59,0 c 1.523,-3.02 4.034,-5.364 6.98,-6.954 0.566,-0.306 1.366,-0.28 1.817,0.234 2.556,2.917 5.112,5.833 7.667,8.75 1.27,1.449 -0.843,3.579 -2.121,2.121 -2.555,-2.917 -5.111,-5.833 -7.667,-8.75 0.606,0.079 1.212,0.157 1.818,0.235 -2.531,1.366 -4.6,3.294 -5.904,5.878 -0.484,0.96 -2.118,1 -2.59,0 -1.383,-2.93 -1.704,-5.853 0,-8.763 0.432,0.752 0.863,1.505 1.295,2.257 C 14.626,-6.833 6.819,-4.189 2.591,1.514 1.452,3.049 -1.154,1.556 0,0" /></g></g></g><g
       transform="translate(-393.99495,-339.91721)"
       id="g5760"><g
         id="g5756"
         transform="translate(-2.3364117e-6,0)"><path
           sodipodi:nodetypes="ccccccc"
           style="fill:#ffffff;fill-opacity:1;stroke:#000000;stroke-opacity:1"
           inkscape:connector-curvature="0"
           id="path204"
           d="m -445.15373,-262.88284 c 0,0 -5.26237,-0.0628 -9.59358,5.84258 0,0 -1.26237,1.59874 -2.79446,1.16312 0,0 -0.33044,0.20028 0.4216,0.54999 5.77076,3.56655 10.98861,2.86894 14.74327,2.17058 2.35517,-0.59674 6.4629,-1.91766 10.0303,-4.50853 -0.005,-0.004 -6.10437,-6.12537 -12.80713,-5.21774 z" /><ellipse
           ry="4.8772149"
           rx="5.0998383"
           cy="-257.8125"
           cx="-444.80786"
           id="path5746"
           style="opacity:1;fill:url(#radialGradient5754);fill-opacity:1;stroke:none;stroke-width:7.4000001;stroke-linecap:round;stroke-linejoin:round;stroke-miterlimit:4;stroke-dasharray:none;stroke-opacity:1" /></g></g><g
       transform="matrix(-0.94825302,0.3175157,0.3175157,0.94825302,-1135.773,-219.44477)"
       id="g5765"><g
         transform="translate(-2.3364117e-6,0)"
         id="g5767"><path
           d="m -445.15373,-262.88284 c 0,0 -5.26237,-0.0628 -9.59358,5.84258 0,0 -1.26237,1.59874 -2.79446,1.16312 0,0 -0.33044,0.20028 0.4216,0.54999 5.77076,3.56655 10.98861,2.86894 14.74327,2.17058 2.35517,-0.59674 6.4629,-1.91766 10.0303,-4.50853 -0.005,-0.004 -6.10437,-6.12537 -12.80713,-5.21774 z"
           id="path5769"
           inkscape:connector-curvature="0"
           style="fill:#ffffff;fill-opacity:1;stroke:#000000;stroke-opacity:1"
           sodipodi:nodetypes="ccccccc" /><ellipse
           style="opacity:1;fill:url(#radialGradient5773);fill-opacity:1;stroke:none;stroke-width:7.4000001;stroke-linecap:round;stroke-linejoin:round;stroke-miterlimit:4;stroke-dasharray:none;stroke-opacity:1"
           id="ellipse5771"
           cx="-444.80786"
           cy="-257.8125"
           rx="5.0998383"
           ry="4.8772149" /></g></g></g><text
     xml:space="preserve"
     style="font-style:normal;font-variant:normal;font-weight:normal;font-stretch:normal;font-size:202.42248535px;line-height:125%;font-family:Dalek;-inkscape-font-specification:'Dalek, Normal';text-align:start;letter-spacing:0px;word-spacing:0px;writing-mode:lr-tb;text-anchor:start;fill:#45a386;fill-opacity:1;stroke:none;stroke-width:1px;stroke-linecap:butt;stroke-linejoin:miter;stroke-opacity:1"
     x="-588.51074"
     y="-626.38959"
     id="text5794"
     sodipodi:linespacing="125%"><tspan
       sodipodi:role="line"
       id="tspan5796"
       x="-588.51074"
       y="-626.38959"
       style="fill:#45a386;fill-opacity:1">perseus</tspan></text>
</svg>